<svg width="48" height="48" viewBox="0 0 48 48" fill="none" xmlns="http://www.w3.org/2000/svg">
<path d="M7.30734 25.1334C6.46687 25.3215 5.83651 26.1024 5.83651 27.0394C5.83651 27.4689 5.97207 27.8807 6.21608 28.2178L5.44 33.0344C5.40611 33.2403 5.46034 33.4497 5.58912 33.6094C5.7179 33.7691 5.90768 33.8614 6.10763 33.8614H9.28651C9.48307 33.8614 9.66946 33.7727 9.79825 33.6165C9.92703 33.4603 9.98464 33.258 9.95753 33.0521L9.29667 28.0297C9.46612 27.7316 9.55763 27.3873 9.55763 27.0359C9.55763 26.3331 9.19839 25.7191 8.66293 25.3748V22.7695L12.8517 24.672V35.5651C12.8517 36.9068 13.8955 38 15.1766 38H34.2905C35.5715 38 36.6153 36.9068 36.6153 35.5651V24.0083L46.5925 19.4757C46.8501 19.3585 47.0128 19.0888 46.9992 18.7942C46.989 18.4996 46.806 18.2476 46.5417 18.1517L23.849 10.0378C23.6999 9.98457 23.5372 9.98812 23.3915 10.0449C15.6205 13.1258 2.85759 18.0382 1.67144 18.1127C1.35288 18.1127 1.07837 18.3505 1.01398 18.6771C0.949588 19.0071 1.11226 19.3408 1.4071 19.4721L7.30734 22.1519V25.1299V25.1334ZM6.90744 32.4416L7.60557 28.1078C7.64624 27.8594 7.55812 27.6074 7.37173 27.4441C7.2565 27.3411 7.18872 27.1956 7.18872 27.0394C7.18872 26.7484 7.41578 26.5106 7.69368 26.5106C7.97158 26.5106 8.19864 26.7484 8.19864 27.0394C8.19864 27.2027 8.13086 27.3163 8.07325 27.3873C7.94447 27.5435 7.88685 27.7458 7.91397 27.9516L8.50704 32.4452H6.90744V32.4416ZM35.2597 35.5651C35.2597 36.1259 34.826 36.5802 34.2905 36.5802H15.1766C14.6411 36.5802 14.2073 36.1259 14.2073 35.5651V25.2896L23.7304 29.6163C23.8151 29.6554 23.9066 29.6731 24.0015 29.6731C24.0964 29.6731 24.1845 29.6554 24.2726 29.6163L35.2631 24.6223V35.5651H35.2597ZM3.73534 18.9859C8.6426 17.3815 20.4227 12.7389 23.6389 11.4647L44.4439 18.9042L23.9981 28.193L10.4964 22.0561L21.8969 20.4802C22.3951 20.7996 23.1373 20.9984 23.9981 20.9984C25.5706 20.9984 26.7568 20.3417 26.7568 19.4757C26.7568 18.6096 25.5706 17.953 23.9981 17.953C22.6425 17.953 21.575 18.4428 21.3073 19.1314L8.08003 20.9593L3.73195 18.9859H3.73534ZM21.9207 19.4757C21.9207 19.142 22.7306 18.6629 24.0015 18.6629C25.2724 18.6629 26.0824 19.1456 26.0824 19.4757C26.0824 19.8058 25.2724 20.2885 24.0015 20.2885C22.7306 20.2885 21.9207 19.8058 21.9207 19.4757Z" fill="currentColor"/>
</svg>
