<svg width="279" height="100" viewBox="0 0 279 100" fill="none" xmlns="http://www.w3.org/2000/svg">
<path d="M69.9068 45.0826L61.1532 41.1899L52.4083 45.0826V60.9017L61.1532 57.0091L69.9068 60.9017V45.0826Z" fill="#8ED8F8"/>
<path d="M69.9067 21.375L61.1531 17.4824L52.4082 21.375V37.1942L61.1531 33.3016L69.9067 37.1942V21.375Z" fill="#8ED8F8"/>
<path d="M17.42 21.3753V37.1944L24.6232 17.4912L17.42 21.3753Z" fill="#8ED8F8"/>
<path d="M27.7153 17.4912L34.9186 37.1945V21.3753L27.7153 17.4912Z" fill="#8ED8F8"/>
<path d="M24.6842 17.4824V33.3016L17.42 37.1942L24.6232 17.491L24.6842 17.4824Z" fill="#F9B200"/>
<path d="M34.9185 37.1942L27.6543 33.3016V17.4824L27.7152 17.491L34.9185 37.1942Z" fill="#F9B200"/>
<path d="M34.9185 58.7665V44.4307H17.42V60.9872C17.42 70.453 25.2155 78.1182 34.8227 78.1182H52.4083V60.8929H37.0786C35.8766 60.8929 34.9098 59.9412 34.9098 58.758L34.9185 58.7665Z" fill="#8ED8F8"/>
<path d="M88.3633 17.4482H91.5773V33.4818H88.3633V17.4482Z" fill="#8ED8F8"/>
<path d="M94.0161 22.0438H96.9514V23.4157C97.2911 22.9441 97.7353 22.5668 98.2753 22.2839C98.8154 22.0009 99.3641 21.8638 99.9041 21.8638H101.298C102.535 21.8638 103.536 22.2496 104.285 23.0127C105.034 23.7758 105.418 24.7875 105.418 26.0393V33.4816H102.256V26.1508C102.256 25.6792 102.125 25.2934 101.873 25.0019C101.62 24.7104 101.289 24.5646 100.888 24.5646H99.4947C98.9547 24.5646 98.467 24.7618 98.0402 25.1476C97.6134 25.5335 97.3347 26.0479 97.1866 26.6738V33.4731H94.0248V22.0438H94.0161Z" fill="#8ED8F8"/>
<path d="M108.196 32.4189C107.351 31.5957 106.924 30.5068 106.924 29.1693V26.5542C106.924 25.6196 107.125 24.8051 107.525 24.0934C107.926 23.3818 108.492 22.833 109.224 22.4472C109.955 22.0614 110.8 21.8642 111.758 21.8642H113.039C113.492 21.8642 113.945 21.9585 114.415 22.1471C114.877 22.3357 115.269 22.593 115.582 22.9102V17.4399H118.744V33.4735H115.809V31.9644C115.495 32.4703 115.077 32.8733 114.554 33.1905C114.023 33.4992 113.474 33.6621 112.899 33.6621H111.523C110.147 33.6621 109.032 33.2505 108.187 32.4274L108.196 32.4189ZM113.257 30.9784C113.892 30.9784 114.424 30.7555 114.85 30.3011C115.277 29.8552 115.521 29.255 115.582 28.5005V26.5113C115.478 25.9197 115.234 25.4396 114.877 25.0794C114.511 24.7193 114.084 24.5393 113.587 24.5393H112.168C111.549 24.5393 111.044 24.7451 110.67 25.1566C110.286 25.5682 110.103 26.1083 110.103 26.7857V28.9378C110.103 29.5465 110.278 30.0438 110.617 30.4125C110.957 30.7898 111.401 30.9698 111.941 30.9698H113.265L113.257 30.9784Z" fill="#8ED8F8"/>
<path d="M121.845 32.4359C121.104 31.6214 120.73 30.5496 120.73 29.2207V22.0527H123.892V29.2635C123.892 29.7694 124.022 30.1724 124.275 30.4896C124.527 30.8069 124.867 30.9612 125.285 30.9612H126.635C127.149 30.9612 127.611 30.7554 128.029 30.3353C128.447 29.9152 128.743 29.3578 128.909 28.6719V22.0527H132.07V33.482H129.135V32.0158C128.778 32.5045 128.342 32.8989 127.82 33.2076C127.297 33.5163 126.801 33.662 126.322 33.662H124.789C123.561 33.662 122.576 33.2505 121.836 32.4359H121.845Z" fill="#8ED8F8"/>
<path d="M134.918 32.5556C134.065 31.8268 133.638 30.858 133.638 29.6662H136.756C136.756 30.0777 136.896 30.4121 137.183 30.6608C137.47 30.9094 137.845 31.038 138.315 31.038H140.406C141.338 31.038 141.799 30.7894 141.799 30.2835V29.8977C141.799 29.7433 141.721 29.6062 141.564 29.4776C141.407 29.3489 141.198 29.2632 140.937 29.2117L136.913 28.5258C135.964 28.3715 135.215 28.0371 134.666 27.5312C134.117 27.0168 133.838 26.4166 133.838 25.7307V24.9762C133.838 23.9987 134.248 23.2356 135.058 22.6869C135.868 22.1381 137.009 21.8638 138.463 21.8638H140.275C141.582 21.8638 142.627 22.2067 143.428 22.8841C144.229 23.5614 144.63 24.4617 144.63 25.5763H141.512C141.512 25.242 141.399 24.9762 141.172 24.779C140.946 24.5817 140.65 24.4789 140.275 24.4789H138.507C137.497 24.4789 136.991 24.7104 136.991 25.1648V25.5335C136.991 25.705 137.061 25.8421 137.192 25.9536C137.322 26.0651 137.514 26.1508 137.758 26.1937L141.991 26.9482C142.871 27.1025 143.585 27.4283 144.134 27.9256C144.674 28.4229 144.944 28.9803 144.944 29.6062V30.4293C144.944 31.4239 144.526 32.2041 143.698 32.7871C142.871 33.3702 141.765 33.6617 140.38 33.6617H138.289C136.878 33.6617 135.746 33.293 134.892 32.5642L134.918 32.5556Z" fill="#8ED8F8"/>
<path d="M148.315 32.556C147.679 31.9473 147.356 30.9956 147.356 29.718V24.7022H145.31V22.0442H147.452V18.5889H150.527V22.0442H153.549V24.7022H150.527V29.5808C150.527 30.0095 150.605 30.3182 150.771 30.524C150.936 30.7212 151.189 30.8241 151.546 30.8241H153.549V33.482H151.319C149.952 33.482 148.95 33.1734 148.315 32.5646V32.556Z" fill="#8ED8F8"/>
<path d="M155.204 22.0438H158.139V23.51C158.436 23.0642 158.854 22.704 159.411 22.4211C159.96 22.1382 160.543 22.001 161.144 22.001H162.73V24.7018H161.144C160.326 24.7018 159.655 24.9505 159.141 25.4306C158.627 25.9193 158.375 26.5452 158.375 27.3083V33.4731H155.213V22.0438H155.204Z" fill="#8ED8F8"/>
<path d="M164.08 20.4578C163.714 20.1148 163.531 19.6604 163.531 19.0945C163.531 18.5286 163.714 18.0742 164.08 17.7312C164.445 17.3883 164.933 17.2168 165.534 17.2168C166.135 17.2168 166.623 17.3883 166.989 17.7312C167.355 18.0742 167.537 18.5286 167.537 19.0945C167.537 19.6604 167.355 20.1148 166.989 20.4578C166.623 20.8008 166.135 20.9722 165.534 20.9722C164.933 20.9722 164.445 20.8008 164.08 20.4578ZM163.949 22.044H167.111V33.4732H163.949V22.044Z" fill="#8ED8F8"/>
<path d="M170.394 32.7702C169.654 32.1786 169.28 31.3898 169.28 30.4123V29.5635C169.28 28.6032 169.672 27.823 170.447 27.2399C171.222 26.6483 172.25 26.3568 173.521 26.3568H174.941C175.342 26.3568 175.777 26.4082 176.248 26.5197C176.709 26.6226 177.136 26.7684 177.528 26.957V25.7652C177.528 25.3879 177.397 25.0707 177.145 24.8392C176.892 24.5991 176.552 24.4877 176.134 24.4877H174.131C173.696 24.4877 173.347 24.5905 173.086 24.7878C172.825 24.985 172.694 25.2507 172.694 25.5851H169.619C169.619 24.4705 170.037 23.5702 170.865 22.8929C171.692 22.2155 172.781 21.8726 174.131 21.8726H176.134C177.502 21.8726 178.599 22.2241 179.435 22.9357C180.272 23.6474 180.69 24.5905 180.69 25.7652V33.4819H177.754V32.11C177.38 32.5816 176.927 32.9588 176.378 33.2418C175.838 33.5247 175.298 33.6619 174.776 33.6619H173.33C172.119 33.6619 171.144 33.3618 170.394 32.7702ZM175.002 31.2097C175.577 31.2097 176.091 31.064 176.535 30.7725C176.988 30.4809 177.31 30.0951 177.511 29.6064V29.2205C177.258 29.0405 176.918 28.8947 176.474 28.7833C176.03 28.6804 175.559 28.6204 175.063 28.6204H173.6C173.225 28.6204 172.929 28.7147 172.694 28.8947C172.459 29.0748 172.345 29.3234 172.345 29.6235V30.2151C172.345 30.5067 172.476 30.7382 172.729 30.9268C172.981 31.1154 173.321 31.2012 173.739 31.2012H174.993L175.002 31.2097Z" fill="#8ED8F8"/>
<path d="M183.625 32.6158C182.981 32.0413 182.658 31.1582 182.658 29.9492V17.4482H185.82V29.7692C185.82 30.1379 185.907 30.4037 186.073 30.5666C186.247 30.7381 186.517 30.8152 186.883 30.8152H188.137V33.4732H186.647C185.271 33.4732 184.252 33.1903 183.608 32.6158H183.625Z" fill="#8ED8F8"/>
<path d="M91.1069 55.2858C90.2359 54.8057 89.5653 54.1283 89.0862 53.2623C88.6072 52.3878 88.3633 51.3846 88.3633 50.2357V39.7925H91.5773V50.1414C91.5773 51.0588 91.8125 51.7962 92.2828 52.3621C92.7531 52.928 93.3716 53.2109 94.1293 53.2109H96.5943C97.3695 53.2109 97.9966 52.928 98.4757 52.3621C98.9547 51.7962 99.1986 51.0588 99.1986 50.1414V39.7925H102.413V50.2357C102.413 51.3846 102.169 52.3878 101.69 53.2623C101.211 54.1369 100.523 54.8057 99.6428 55.2858C98.7631 55.766 97.744 56.0061 96.5943 56.0061H94.1293C92.9796 56.0061 91.9692 55.766 91.1069 55.2858Z" fill="#8ED8F8"/>
<path d="M104.529 44.3969H107.464V45.7687C107.804 45.2971 108.248 44.9199 108.788 44.6369C109.328 44.354 109.877 44.2168 110.417 44.2168H111.811C113.047 44.2168 114.049 44.6026 114.798 45.3657C115.547 46.1288 115.93 47.1406 115.93 48.3924V55.8347H112.769V48.5038C112.769 48.0323 112.638 47.6464 112.386 47.3549C112.133 47.0634 111.802 46.9176 111.401 46.9176H110.008C109.468 46.9176 108.98 47.1148 108.553 47.5007C108.126 47.8865 107.848 48.4009 107.7 49.0269V55.8261H104.538V44.3969H104.529Z" fill="#8ED8F8"/>
<path d="M118.456 42.802C118.091 42.4591 117.908 42.0046 117.908 41.4388C117.908 40.8729 118.091 40.4184 118.456 40.0755C118.822 39.7325 119.31 39.561 119.911 39.561C120.512 39.561 121 39.7325 121.366 40.0755C121.731 40.4184 121.914 40.8729 121.914 41.4388C121.914 42.0046 121.731 42.4591 121.366 42.802C121 43.145 120.512 43.3165 119.911 43.3165C119.31 43.3165 118.822 43.145 118.456 42.802ZM118.326 44.3968H121.488V55.826H118.326V44.3968Z" fill="#8ED8F8"/>
<path d="M127.41 55.4744C127.105 55.2343 126.844 54.8571 126.635 54.3426L122.637 44.4053H125.964L128.708 52.2591H128.752L131.521 44.4053H134.849L130.171 55.8345H128.543C128.09 55.8345 127.715 55.7145 127.41 55.483V55.4744Z" fill="#8ED8F8"/>
<path d="M137.209 55.4746C136.46 55.1145 135.868 54.6086 135.45 53.9655C135.032 53.3139 134.823 52.5765 134.823 51.7363V48.7782C134.823 47.8779 135.032 47.0805 135.45 46.3946C135.868 45.7087 136.451 45.1771 137.209 44.7913C137.958 44.414 138.829 44.2168 139.805 44.2168H141.669C143.158 44.2168 144.351 44.6284 145.249 45.4515C146.146 46.2746 146.599 47.3721 146.599 48.7525V51.179H137.993V51.7277C137.993 52.2336 138.159 52.6365 138.481 52.9452C138.803 53.2539 139.247 53.3996 139.805 53.3996H141.616C142.156 53.3996 142.601 53.2796 142.932 53.0481C143.263 52.808 143.428 52.4994 143.428 52.1221H146.546C146.546 52.8852 146.337 53.5625 145.919 54.1627C145.501 54.7629 144.918 55.2173 144.16 55.5346C143.411 55.8518 142.54 56.0147 141.564 56.0147H139.796C138.821 56.0147 137.958 55.8347 137.2 55.4746H137.209ZM143.48 48.9325V48.7525C143.48 48.1609 143.315 47.6807 142.993 47.3206C142.67 46.9605 142.235 46.7805 141.686 46.7805H139.805C139.247 46.7805 138.794 46.9691 138.455 47.3549C138.115 47.7407 137.941 48.238 137.941 48.8639V48.9325H143.48Z" fill="#8ED8F8"/>
<path d="M148.158 44.3969H151.093V45.863C151.389 45.4172 151.807 45.0571 152.365 44.7741C152.913 44.4912 153.497 44.354 154.098 44.354H155.683V47.0548H154.098C153.279 47.0548 152.609 47.3035 152.095 47.7836C151.581 48.2724 151.328 48.8983 151.328 49.6614V55.8261H148.166V44.3969H148.158Z" fill="#8ED8F8"/>
<path d="M157.207 54.9087C156.354 54.1799 155.927 53.211 155.927 52.0192H159.045C159.045 52.4308 159.185 52.7652 159.472 53.0138C159.759 53.2625 160.134 53.3911 160.604 53.3911H162.695C163.627 53.3911 164.088 53.1424 164.088 52.6365V52.2507C164.088 52.0964 164.01 51.9592 163.853 51.8306C163.696 51.702 163.487 51.6162 163.226 51.5648L159.202 50.8789C158.253 50.7245 157.504 50.3901 156.955 49.8843C156.406 49.3698 156.127 48.7696 156.127 48.0837V47.3292C156.127 46.3517 156.537 45.5887 157.347 45.0399C158.157 44.4912 159.298 44.2168 160.752 44.2168H162.564C163.871 44.2168 164.916 44.5598 165.717 45.2371C166.518 45.9145 166.919 46.8147 166.919 47.9294H163.801C163.801 47.595 163.688 47.3292 163.461 47.132C163.235 46.9348 162.939 46.8319 162.564 46.8319H160.796C159.786 46.8319 159.28 47.0634 159.28 47.5178V47.8865C159.28 48.058 159.35 48.1952 159.481 48.3066C159.611 48.4181 159.803 48.5038 160.047 48.5467L164.28 49.3012C165.16 49.4556 165.874 49.7814 166.423 50.2787C166.963 50.776 167.233 51.3333 167.233 51.9592V52.7823C167.233 53.7769 166.815 54.5571 165.987 55.1402C165.16 55.7232 164.054 56.0147 162.669 56.0147H160.578C159.167 56.0147 158.035 55.646 157.181 54.9172L157.207 54.9087Z" fill="#8ED8F8"/>
<path d="M169.219 42.802C168.853 42.4591 168.67 42.0046 168.67 41.4388C168.67 40.8729 168.853 40.4184 169.219 40.0755C169.584 39.7325 170.072 39.561 170.673 39.561C171.274 39.561 171.762 39.7325 172.128 40.0755C172.494 40.4184 172.676 40.8729 172.676 41.4388C172.676 42.0046 172.494 42.4591 172.128 42.802C171.762 43.145 171.274 43.3165 170.673 43.3165C170.072 43.3165 169.584 43.145 169.219 42.802ZM169.097 44.3968H172.258V55.826H169.097V44.3968Z" fill="#8ED8F8"/>
<path d="M176.866 54.9086C176.23 54.2998 175.908 53.3481 175.908 52.0706V47.0547H173.861V44.3968H176.004V40.9414H179.078V44.3968H182.101V47.0547H179.078V51.9334C179.078 52.3621 179.157 52.6707 179.322 52.8765C179.488 53.0737 179.74 53.1766 180.097 53.1766H182.101V55.8346H179.871C178.504 55.8346 177.502 55.5259 176.866 54.9171V54.9086Z" fill="#8ED8F8"/>
<path d="M185.019 59.4356C184.209 58.7411 183.747 57.8323 183.66 56.7005H186.778C186.813 57.0349 186.952 57.3093 187.196 57.515C187.44 57.7208 187.754 57.8237 188.128 57.8237H190.036C190.515 57.8237 190.907 57.6265 191.211 57.2407C191.516 56.8548 191.664 56.3404 191.664 55.7145V54.2226C191.307 54.6942 190.898 55.0629 190.445 55.3372C189.983 55.603 189.53 55.7402 189.086 55.7402H187.553C186.325 55.7402 185.341 55.3372 184.601 54.5398C183.86 53.7424 183.486 52.6707 183.486 51.3417V44.4053H186.647V51.3932C186.647 51.899 186.778 52.302 187.031 52.6192C187.283 52.9365 187.623 53.0908 188.041 53.0908H189.391C189.905 53.0908 190.367 52.885 190.785 52.4649C191.203 52.0448 191.499 51.4875 191.664 50.8015V44.4139H194.826V55.7316C194.826 56.6748 194.626 57.5065 194.234 58.2267C193.842 58.9469 193.276 59.5042 192.544 59.8986C191.812 60.293 190.976 60.4902 190.027 60.4902H188.119C186.865 60.4902 185.829 60.1387 185.01 59.4442L185.019 59.4356Z" fill="#8ED8F8"/>
<path d="M204.956 55.4486C204.207 55.0714 203.623 54.5483 203.214 53.8538C202.805 53.1679 202.595 52.3705 202.595 51.4703V48.7866C202.595 47.8863 202.805 47.0889 203.223 46.3944C203.641 45.6999 204.224 45.1597 204.982 44.7825C205.731 44.4052 206.602 44.208 207.578 44.208H209.668C210.644 44.208 211.506 44.3966 212.264 44.7825C213.013 45.1683 213.605 45.6999 214.023 46.3944C214.441 47.0889 214.65 47.8863 214.65 48.7866V51.4703C214.65 52.3705 214.441 53.1679 214.023 53.8538C213.605 54.5398 213.021 55.0714 212.264 55.4486C211.515 55.8259 210.635 56.0059 209.642 56.0059H207.551C206.576 56.0059 205.714 55.8173 204.956 55.4486ZM209.598 53.3308C210.173 53.3308 210.626 53.1336 210.975 52.7478C211.323 52.362 211.488 51.8475 211.488 51.2216V49.0009C211.488 48.375 211.314 47.8691 210.975 47.4747C210.635 47.0803 210.182 46.8917 209.624 46.8917H207.621C207.064 46.8917 206.611 47.0889 206.271 47.4747C205.931 47.8606 205.757 48.375 205.757 49.0009V51.2216C205.757 51.8475 205.931 52.3534 206.271 52.7478C206.611 53.1336 207.055 53.3308 207.595 53.3308H209.598Z" fill="#8ED8F8"/>
<path d="M217.228 47.0548H215.225V44.3968H217.228V43.6423C217.228 42.4076 217.629 41.4388 218.43 40.7443C219.232 40.0498 220.338 39.6982 221.766 39.6982H223.439V42.3562H221.81C221.313 42.3562 220.956 42.4591 220.73 42.6734C220.503 42.8878 220.39 43.2222 220.39 43.6852V44.3968H223.186V47.0548H220.39V55.8261H217.228V47.0548Z" fill="#8ED8F8"/>
<path d="M88.3633 62.085H91.5773V68.7041H99.1637V62.085H102.378V78.1185H99.1637V71.4564H91.5773V78.1185H88.3633V62.085Z" fill="#8ED8F8"/>
<path d="M106.471 77.7411C105.722 77.3638 105.139 76.8408 104.729 76.1463C104.32 75.4604 104.111 74.663 104.111 73.7627V71.079C104.111 70.1788 104.32 69.3814 104.738 68.6869C105.156 67.9924 105.74 67.4522 106.498 67.075C107.247 66.6977 108.118 66.5005 109.093 66.5005H111.184C112.159 66.5005 113.021 66.6891 113.779 67.075C114.528 67.4608 115.12 67.9924 115.539 68.6869C115.957 69.3814 116.166 70.1788 116.166 71.079V73.7627C116.166 74.663 115.957 75.4604 115.539 76.1463C115.12 76.8322 114.537 77.3638 113.779 77.7411C113.03 78.1183 112.15 78.2984 111.157 78.2984H109.067C108.091 78.2984 107.229 78.1098 106.471 77.7411ZM111.114 75.6233C111.689 75.6233 112.142 75.4261 112.49 75.0403C112.838 74.6544 113.004 74.14 113.004 73.5141V71.2934C113.004 70.6675 112.83 70.1616 112.49 69.7672C112.15 69.3814 111.697 69.1842 111.14 69.1842H109.137C108.579 69.1842 108.126 69.3814 107.787 69.7672C107.447 70.153 107.273 70.6675 107.273 71.2934V73.5141C107.273 74.14 107.447 74.6459 107.787 75.0403C108.126 75.4261 108.57 75.6233 109.111 75.6233H111.114Z" fill="#8ED8F8"/>
<path d="M125.712 77.5442C124.806 77.0383 124.101 76.3267 123.604 75.4007C123.108 74.4747 122.855 73.4115 122.855 72.2025V67.9926C122.855 66.7837 123.108 65.7205 123.613 64.7945C124.118 63.8685 124.832 63.1569 125.755 62.651C126.679 62.1451 127.741 61.8965 128.952 61.8965H131.417C132.584 61.8965 133.603 62.1451 134.492 62.6253C135.38 63.114 136.059 63.7999 136.547 64.6745C137.035 65.549 137.279 66.5694 137.279 67.7354H134.117C134.117 66.818 133.864 66.0806 133.377 65.5233C132.88 64.966 132.227 64.6916 131.426 64.6916H128.961C128.09 64.6916 127.393 65.0089 126.87 65.6434C126.339 66.2778 126.078 67.1095 126.078 68.1298V72.0653C126.078 73.0856 126.33 73.9173 126.844 74.5518C127.358 75.1863 128.029 75.5035 128.865 75.5035H131.382C132.201 75.5035 132.872 75.1949 133.394 74.5604C133.917 73.9345 134.178 73.1114 134.178 72.091H137.34C137.34 73.3257 137.087 74.4146 136.591 75.3578C136.094 76.3009 135.397 77.0211 134.5 77.5356C133.603 78.05 132.558 78.2987 131.382 78.2987H128.865C127.672 78.2987 126.618 78.05 125.712 77.5442Z" fill="#8ED8F8"/>
<path d="M138.664 62.0848H141.826V67.8294C142.165 67.435 142.592 67.1092 143.097 66.8691C143.602 66.629 144.09 66.5004 144.552 66.5004H145.998C147.235 66.5004 148.236 66.8862 148.985 67.6493C149.734 68.4124 150.118 69.4242 150.118 70.676V78.1183H146.956V70.7874C146.956 70.3159 146.825 69.93 146.573 69.6385C146.32 69.347 145.989 69.2012 145.58 69.2012H144.134C143.594 69.2012 143.106 69.3984 142.679 69.7843C142.252 70.1701 141.974 70.6845 141.826 71.3104V78.1097H138.664V62.0762V62.0848Z" fill="#8ED8F8"/>
<path d="M152.635 65.1028C152.269 64.7599 152.086 64.3054 152.086 63.7395C152.086 63.1737 152.269 62.7192 152.635 62.3763C153 62.0333 153.488 61.8618 154.089 61.8618C154.69 61.8618 155.178 62.0333 155.544 62.3763C155.91 62.7192 156.093 63.1737 156.093 63.7395C156.093 64.3054 155.91 64.7599 155.544 65.1028C155.178 65.4458 154.69 65.6173 154.089 65.6173C153.488 65.6173 153 65.4458 152.635 65.1028ZM152.504 66.689H155.666V78.1183H152.504V66.689Z" fill="#8ED8F8"/>
<path d="M163.191 62.085H166.057L171.387 71.6107L176.596 62.085H179.462V78.1185H176.317V67.9753L172.894 74.0715C172.659 74.4831 172.424 74.7746 172.189 74.9546C171.945 75.1347 171.675 75.2205 171.361 75.2205H170.473L166.336 67.9839V78.1271H163.191V62.0935V62.085Z" fill="#8ED8F8"/>
<path d="M182.214 65.1028C181.848 64.7599 181.665 64.3054 181.665 63.7395C181.665 63.1737 181.848 62.7192 182.214 62.3763C182.58 62.0333 183.068 61.8618 183.669 61.8618C184.27 61.8618 184.757 62.0333 185.123 62.3763C185.489 62.7192 185.672 63.1737 185.672 63.7395C185.672 64.3054 185.489 64.7599 185.123 65.1028C184.757 65.4458 184.27 65.6173 183.669 65.6173C183.068 65.6173 182.58 65.4458 182.214 65.1028ZM182.083 66.689H185.245V78.1183H182.083V66.689Z" fill="#8ED8F8"/>
<path d="M187.78 66.6888H190.715V68.0607C191.055 67.5891 191.499 67.2119 192.039 66.9289C192.579 66.646 193.128 66.5088 193.668 66.5088H195.061C196.298 66.5088 197.3 66.8946 198.049 67.6577C198.798 68.4208 199.181 69.4325 199.181 70.6844V78.1267H196.019V70.7958C196.019 70.3243 195.889 69.9384 195.636 69.6469C195.384 69.3554 195.053 69.2096 194.652 69.2096H193.258C192.718 69.2096 192.23 69.4068 191.804 69.7926C191.377 70.1785 191.098 70.6929 190.95 71.3188V78.1181H187.788V66.6888H187.78Z" fill="#8ED8F8"/>
<path d="M201.158 62.0848H204.32V67.8294C204.66 67.435 205.087 67.1092 205.592 66.8691C206.097 66.629 206.585 66.5004 207.046 66.5004H208.492C209.729 66.5004 210.731 66.8862 211.48 67.6493C212.229 68.4124 212.612 69.4242 212.612 70.676V78.1183H209.45V70.7874C209.45 70.3159 209.32 69.93 209.067 69.6385C208.814 69.347 208.483 69.2012 208.074 69.2012H206.628C206.088 69.2012 205.6 69.3984 205.174 69.7843C204.747 70.1701 204.468 70.6845 204.32 71.3104V78.1097H201.158V62.0762V62.0848Z" fill="#8ED8F8"/>
<path d="M222.489 77.5442C221.583 77.0383 220.878 76.3267 220.381 75.4007C219.885 74.4747 219.632 73.4115 219.632 72.2025V67.9926C219.632 66.7837 219.885 65.7205 220.39 64.7945C220.895 63.8685 221.61 63.1569 222.533 62.651C223.456 62.1451 224.519 61.8965 225.729 61.8965H228.194C229.361 61.8965 230.381 62.1451 231.269 62.6253C232.157 63.114 232.837 63.7999 233.325 64.6745C233.812 65.549 234.056 66.5694 234.056 67.7354H230.894C230.894 66.818 230.642 66.0806 230.154 65.5233C229.658 64.966 229.004 64.6916 228.203 64.6916H225.738C224.867 64.6916 224.17 65.0089 223.648 65.6434C223.116 66.2778 222.855 67.1095 222.855 68.1298V72.0653C222.855 73.0856 223.108 73.9173 223.622 74.5518C224.135 75.1863 224.806 75.5035 225.642 75.5035H228.159C228.978 75.5035 229.649 75.1949 230.172 74.5604C230.694 73.9345 230.955 73.1114 230.955 72.091H234.117C234.117 73.3257 233.865 74.4146 233.368 75.3578C232.872 76.3009 232.175 77.0211 231.278 77.5356C230.381 78.05 229.335 78.2987 228.159 78.2987H225.642C224.449 78.2987 223.395 78.05 222.489 77.5442Z" fill="#8ED8F8"/>
<path d="M235.981 65.1028C235.615 64.7599 235.432 64.3054 235.432 63.7395C235.432 63.1737 235.615 62.7192 235.981 62.3763C236.347 62.0333 236.835 61.8618 237.436 61.8618C238.037 61.8618 238.524 62.0333 238.89 62.3763C239.256 62.7192 239.439 63.1737 239.439 63.7395C239.439 64.3054 239.256 64.7599 238.89 65.1028C238.524 65.4458 238.037 65.6173 237.436 65.6173C236.835 65.6173 236.347 65.4458 235.981 65.1028ZM235.85 66.689H239.012V78.1183H235.85V66.689Z" fill="#8ED8F8"/>
<path d="M243.62 77.2006C242.984 76.5918 242.662 75.6401 242.662 74.3626V69.3467H240.615V66.6888H242.757V63.2334H245.832V66.6888H248.854V69.3467H245.832V74.2254C245.832 74.6541 245.91 74.9627 246.076 75.1685C246.241 75.3657 246.494 75.4686 246.851 75.4686H248.854V78.1266H246.625C245.257 78.1266 244.256 77.8179 243.62 77.2091V77.2006Z" fill="#8ED8F8"/>
<path d="M251.772 81.7281C250.962 81.0336 250.501 80.1248 250.414 78.993H253.532C253.567 79.3274 253.706 79.6017 253.95 79.8075C254.194 80.0133 254.507 80.1162 254.882 80.1162H256.789C257.268 80.1162 257.66 79.919 257.965 79.5332C258.27 79.1473 258.418 78.6329 258.418 78.007V76.5151C258.061 76.9866 257.652 77.3553 257.199 77.6297C256.737 77.8955 256.284 78.0327 255.84 78.0327H254.307C253.079 78.0327 252.095 77.6297 251.354 76.8323C250.614 76.0349 250.239 74.9632 250.239 73.6342V66.6978H253.401V73.6856C253.401 74.1915 253.532 74.5945 253.784 74.9117C254.037 75.229 254.377 75.3833 254.795 75.3833H256.145C256.659 75.3833 257.12 75.1775 257.538 74.7574C257.956 74.3373 258.253 73.7799 258.418 73.094V66.7063H261.58V78.0241C261.58 78.9673 261.38 79.7989 260.988 80.5192C260.596 81.2394 260.029 81.7967 259.298 82.1911C258.566 82.5855 257.73 82.7827 256.781 82.7827H254.873C253.619 82.7827 252.582 82.4312 251.764 81.7367L251.772 81.7281Z" fill="#8ED8F8"/>
</svg>
