<svg width="164" height="60" viewBox="0 0 164 60" fill="none" xmlns="http://www.w3.org/2000/svg">
<path d="M41.0921 27.0497L35.9466 24.7141L30.8063 27.0497V36.5412L35.9466 34.2056L41.0921 36.5412V27.0497Z" fill="#153898"/>
<path d="M41.0921 12.8253L35.9466 10.4897L30.8063 12.8253V22.3168L35.9466 19.9812L41.0921 22.3168V12.8253Z" fill="#153898"/>
<path d="M10.2397 12.8253V22.3168L14.4739 10.4949L10.2397 12.8253Z" fill="#153898"/>
<path d="M16.2914 10.4949L20.5255 22.3168V12.8253L16.2914 10.4949Z" fill="#153898"/>
<path d="M14.5097 10.4897V19.9812L10.2397 22.3168L14.4739 10.4949L14.5097 10.4897Z" fill="#F9B200"/>
<path d="M20.5256 22.3168L16.2556 19.9812V10.4897L16.2914 10.4949L20.5256 22.3168Z" fill="#F9B200"/>
<path d="M20.5256 35.2602V26.6587H10.2397V36.5926C10.2397 42.2721 14.822 46.8712 20.4693 46.8712H30.8063V36.536H21.7953C21.0888 36.536 20.5205 35.965 20.5205 35.2551L20.5256 35.2602Z" fill="#153898"/>
<path d="M51.9412 10.4692H53.8304V20.0894H51.9412V10.4692Z" fill="#153898"/>
<path d="M55.2639 13.2267H56.9893V14.0498C57.189 13.7669 57.4501 13.5405 57.7675 13.3707C58.085 13.201 58.4075 13.1187 58.725 13.1187H59.5441C60.2712 13.1187 60.86 13.3502 61.3003 13.808C61.7406 14.2659 61.9659 14.8729 61.9659 15.624V20.0894H60.1073V15.6909C60.1073 15.4079 60.0305 15.1764 59.8821 15.0015C59.7336 14.8266 59.539 14.7391 59.3035 14.7391H58.4843C58.1669 14.7391 57.8802 14.8575 57.6293 15.089C57.3784 15.3205 57.2146 15.6291 57.1276 16.0047V20.0842H55.269V13.2267H55.2639Z" fill="#153898"/>
<path d="M63.5991 19.4515C63.1024 18.9576 62.8516 18.3043 62.8516 17.5017V15.9327C62.8516 15.3719 62.9693 14.8832 63.2048 14.4562C63.4404 14.0292 63.7731 13.7 64.2032 13.4685C64.6333 13.237 65.1299 13.1186 65.6931 13.1186H66.4457C66.712 13.1186 66.9782 13.1752 67.2547 13.2884C67.526 13.4016 67.7564 13.5559 67.9407 13.7463V10.4641H69.7992V20.0842H68.0738V19.1788C67.8895 19.4823 67.6438 19.7241 67.3366 19.9145C67.0243 20.0997 66.7017 20.1974 66.3638 20.1974H65.5549C64.7459 20.1974 64.0906 19.9505 63.594 19.4566L63.5991 19.4515ZM66.5737 18.5872C66.9475 18.5872 67.2598 18.4534 67.5107 18.1808C67.7615 17.9133 67.9049 17.5532 67.9407 17.1004V15.9069C67.8793 15.552 67.7359 15.2639 67.526 15.0478C67.311 14.8317 67.0601 14.7237 66.7683 14.7237H65.9337C65.5702 14.7237 65.2733 14.8472 65.0531 15.0941C64.8278 15.341 64.7203 15.6651 64.7203 16.0716V17.3628C64.7203 17.7281 64.8227 18.0264 65.0224 18.2477C65.2221 18.474 65.4832 18.582 65.8006 18.582H66.5788L66.5737 18.5872Z" fill="#153898"/>
<path d="M71.622 19.4616C71.1868 18.9729 70.9667 18.3298 70.9667 17.5324V13.2317H72.8252V17.5582C72.8252 17.8617 72.902 18.1035 73.0505 18.2938C73.1989 18.4842 73.3986 18.5768 73.6444 18.5768H74.438C74.74 18.5768 75.0114 18.4533 75.2571 18.2012C75.5029 17.9491 75.677 17.6148 75.7742 17.2032V13.2317H77.6328V20.0892H75.9074V19.2095C75.6974 19.5028 75.4415 19.7394 75.1343 19.9246C74.8271 20.1098 74.5352 20.1973 74.2536 20.1973H73.3525C72.6306 20.1973 72.0521 19.9503 71.6169 19.4616H71.622Z" fill="#153898"/>
<path d="M79.3069 19.5338C78.8052 19.0965 78.5543 18.5152 78.5543 17.8001H80.3872C80.3872 18.047 80.4692 18.2477 80.6381 18.3969C80.8071 18.546 81.0272 18.6232 81.3037 18.6232H82.5325C83.0803 18.6232 83.3516 18.474 83.3516 18.1705V17.939C83.3516 17.8464 83.3056 17.7641 83.2134 17.6869C83.1213 17.6098 82.9984 17.5583 82.8448 17.5274L80.4794 17.1159C79.9213 17.0233 79.481 16.8227 79.1585 16.5191C78.8359 16.2105 78.6721 15.8504 78.6721 15.4388V14.9861C78.6721 14.3996 78.9127 13.9418 79.3889 13.6125C79.865 13.2833 80.5357 13.1187 81.3907 13.1187H82.4557C83.2236 13.1187 83.838 13.3244 84.3091 13.7308C84.7801 14.1373 85.0156 14.6774 85.0156 15.3462H83.1827C83.1827 15.1456 83.1161 14.9861 82.983 14.8678C82.8499 14.7494 82.6758 14.6877 82.4557 14.6877H81.4163C80.8224 14.6877 80.5255 14.8266 80.5255 15.0993V15.3205C80.5255 15.4234 80.5664 15.5057 80.6432 15.5726C80.72 15.6394 80.8327 15.6909 80.976 15.7166L83.4643 16.1693C83.9814 16.2619 84.4012 16.4574 84.7238 16.7558C85.0412 17.0541 85.1999 17.3885 85.1999 17.7641V18.2579C85.1999 18.8547 84.9542 19.3228 84.4678 19.6727C83.9814 20.0225 83.3312 20.1974 82.5171 20.1974H81.2883C80.4589 20.1974 79.7933 19.9762 79.2916 19.5389L79.3069 19.5338Z" fill="#153898"/>
<path d="M87.1813 19.5336C86.8075 19.1684 86.6181 18.5973 86.6181 17.8308V14.8213H85.4149V13.2265H86.6744V11.1533H88.4817V13.2265H90.2583V14.8213H88.4817V17.7485C88.4817 18.0057 88.5278 18.1909 88.6251 18.3144C88.7224 18.4327 88.8708 18.4944 89.0808 18.4944H90.2583V20.0892H88.9476C88.1438 20.0892 87.555 19.904 87.1813 19.5388V19.5336Z" fill="#153898"/>
<path d="M91.2311 13.2266H92.9565V14.1063C93.1306 13.8388 93.3763 13.6228 93.704 13.453C94.0265 13.2832 94.3696 13.2009 94.7228 13.2009H95.6546V14.8214H94.7228C94.2416 14.8214 93.8473 14.9706 93.5452 15.2587C93.2432 15.5519 93.0947 15.9275 93.0947 16.3853V20.0842H91.2362V13.2266H91.2311Z" fill="#153898"/>
<path d="M96.4483 12.2749C96.2333 12.0691 96.1257 11.7965 96.1257 11.457C96.1257 11.1174 96.2333 10.8448 96.4483 10.639C96.6633 10.4332 96.95 10.3303 97.3033 10.3303C97.6566 10.3303 97.9433 10.4332 98.1583 10.639C98.3733 10.8448 98.4809 11.1174 98.4809 11.457C98.4809 11.7965 98.3733 12.0691 98.1583 12.2749C97.9433 12.4807 97.6566 12.5836 97.3033 12.5836C96.95 12.5836 96.6633 12.4807 96.4483 12.2749ZM96.3715 13.2266H98.23V20.0842H96.3715V13.2266Z" fill="#153898"/>
<path d="M100.16 19.6624C99.7251 19.3074 99.5049 18.8341 99.5049 18.2477V17.7383C99.5049 17.1622 99.7353 16.694 100.191 16.3442C100.647 15.9892 101.251 15.8143 101.998 15.8143H102.833C103.068 15.8143 103.324 15.8452 103.601 15.9121C103.872 15.9738 104.123 16.0613 104.353 16.1744V15.4594C104.353 15.233 104.277 15.0427 104.128 14.9038C103.98 14.7597 103.78 14.6928 103.534 14.6928H102.357C102.101 14.6928 101.896 14.7546 101.742 14.8729C101.589 14.9912 101.512 15.1507 101.512 15.3513H99.7046C99.7046 14.6825 99.9503 14.1424 100.437 13.736C100.923 13.3296 101.563 13.1238 102.357 13.1238H103.534C104.338 13.1238 104.983 13.3347 105.475 13.7617C105.966 14.1887 106.212 14.7546 106.212 15.4594V20.0894H104.487V19.2662C104.266 19.5492 104 19.7756 103.678 19.9453C103.36 20.1151 103.043 20.1974 102.736 20.1974H101.886C101.174 20.1974 100.601 20.0173 100.16 19.6624ZM102.869 18.7261C103.207 18.7261 103.509 18.6386 103.77 18.4637C104.036 18.2888 104.225 18.0573 104.343 17.7641V17.5326C104.195 17.4245 103.995 17.3371 103.734 17.2702C103.473 17.2085 103.196 17.1725 102.904 17.1725H102.044C101.824 17.1725 101.65 17.229 101.512 17.3371C101.374 17.4451 101.307 17.5943 101.307 17.7744V18.1293C101.307 18.3042 101.384 18.4431 101.532 18.5563C101.681 18.6695 101.881 18.7209 102.126 18.7209H102.864L102.869 18.7261Z" fill="#153898"/>
<path d="M107.937 19.5698C107.558 19.2251 107.369 18.6952 107.369 17.9698V10.4692H109.228V17.8618C109.228 18.083 109.279 18.2425 109.376 18.3402C109.478 18.4431 109.637 18.4894 109.852 18.4894H110.589V20.0842H109.714C108.905 20.0842 108.306 19.9144 107.927 19.5698H107.937Z" fill="#153898"/>
<path d="M53.5539 33.1717C53.0419 32.8837 52.6477 32.4772 52.3661 31.9577C52.0845 31.4329 51.9412 30.831 51.9412 30.1417V23.8757H53.8304V30.0851C53.8304 30.6355 53.9686 31.078 54.2451 31.4175C54.5216 31.757 54.8851 31.9268 55.3305 31.9268H56.7795C57.2351 31.9268 57.6038 31.757 57.8854 31.4175C58.1669 31.078 58.3103 30.6355 58.3103 30.0851V23.8757H60.1995V30.1417C60.1995 30.831 60.0562 31.4329 59.7746 31.9577C59.493 32.4824 59.0885 32.8837 58.5714 33.1717C58.0543 33.4598 57.4553 33.6039 56.7795 33.6039H55.3305C54.6547 33.6039 54.0608 33.4598 53.5539 33.1717Z" fill="#153898"/>
<path d="M61.4436 26.6383H63.169V27.4614C63.3687 27.1785 63.6298 26.9521 63.9472 26.7824C64.2647 26.6126 64.5872 26.5303 64.9046 26.5303H65.7238C66.4509 26.5303 67.0396 26.7618 67.4799 27.2196C67.9203 27.6775 68.1455 28.2845 68.1455 29.0356V33.501H66.287V29.1025C66.287 28.8196 66.2102 28.5881 66.0617 28.4131C65.9133 28.2382 65.7187 28.1508 65.4832 28.1508H64.664C64.3466 28.1508 64.0599 28.2691 63.809 28.5006C63.5581 28.7321 63.3943 29.0408 63.3072 29.4163V33.4959H61.4487V26.6383H61.4436Z" fill="#153898"/>
<path d="M69.6304 25.6814C69.4154 25.4756 69.3079 25.203 69.3079 24.8635C69.3079 24.5239 69.4154 24.2513 69.6304 24.0455C69.8455 23.8397 70.1322 23.7368 70.4854 23.7368C70.8387 23.7368 71.1254 23.8397 71.3405 24.0455C71.5555 24.2513 71.663 24.5239 71.663 24.8635C71.663 25.203 71.5555 25.4756 71.3405 25.6814C71.1254 25.8872 70.8387 25.9901 70.4854 25.9901C70.1322 25.9901 69.8455 25.8872 69.6304 25.6814ZM69.5536 26.6383H71.4121V33.4958H69.5536V26.6383Z" fill="#153898"/>
<path d="M74.8936 33.285C74.7144 33.141 74.5608 32.9146 74.4379 32.606L72.0879 26.6436H74.0437L75.6564 31.3559H75.682L77.3102 26.6436H79.266L76.5166 33.5011H75.5592C75.2929 33.5011 75.0728 33.4291 74.8936 33.2902V33.285Z" fill="#153898"/>
<path d="M80.6535 33.2849C80.2132 33.0689 79.865 32.7653 79.6192 32.3795C79.3735 31.9885 79.2506 31.5461 79.2506 31.042V29.2671C79.2506 28.727 79.3735 28.2485 79.6192 27.837C79.865 27.4254 80.208 27.1065 80.6535 26.875C81.0938 26.6486 81.6058 26.5303 82.1792 26.5303H83.2748C84.1503 26.5303 84.8518 26.7772 85.3791 27.2711C85.9065 27.7649 86.1727 28.4234 86.1727 29.2517V30.7076H81.1143V31.0368C81.1143 31.3403 81.2115 31.5821 81.401 31.7673C81.5904 31.9525 81.8515 32.04 82.1792 32.04H83.2441C83.5616 32.04 83.8227 31.968 84.0172 31.8291C84.2118 31.685 84.3091 31.4998 84.3091 31.2735H86.142C86.142 31.7313 86.0191 32.1377 85.7733 32.4978C85.5276 32.8579 85.1846 33.1306 84.7391 33.3209C84.2988 33.5113 83.7868 33.609 83.2134 33.609H82.1741C81.6006 33.609 81.0938 33.501 80.6483 33.2849H80.6535ZM84.3398 29.3597V29.2517C84.3398 28.8967 84.2425 28.6086 84.0531 28.3926C83.8636 28.1765 83.6076 28.0685 83.2851 28.0685H82.1792C81.8515 28.0685 81.5853 28.1816 81.3856 28.4131C81.1859 28.6446 81.0835 28.943 81.0835 29.3186V29.3597H84.3398Z" fill="#153898"/>
<path d="M87.0891 26.6383H88.8145V27.518C88.9886 27.2505 89.2343 27.0344 89.562 26.8646C89.8846 26.6949 90.2276 26.6125 90.5809 26.6125H91.5127V28.2331H90.5809C90.0996 28.2331 89.7054 28.3822 89.4033 28.6703C89.1012 28.9636 88.9528 29.3391 88.9528 29.797V33.4958H87.0942V26.6383H87.0891Z" fill="#153898"/>
<path d="M92.4086 32.9454C91.9069 32.5081 91.656 31.9268 91.656 31.2117H93.4889C93.4889 31.4587 93.5708 31.6593 93.7398 31.8085C93.9088 31.9577 94.1289 32.0348 94.4054 32.0348H95.6342C96.182 32.0348 96.4534 31.8856 96.4534 31.5821V31.3506C96.4534 31.258 96.4073 31.1757 96.3151 31.0985C96.223 31.0214 96.1001 30.9699 95.9465 30.9391L93.5811 30.5275C93.023 30.4349 92.5827 30.2343 92.2602 29.9308C91.9376 29.6221 91.7738 29.262 91.7738 28.8504V28.3977C91.7738 27.8112 92.0144 27.3534 92.4905 27.0241C92.9667 26.6949 93.6374 26.5303 94.4924 26.5303H95.5574C96.3254 26.5303 96.9397 26.7361 97.4108 27.1425C97.8818 27.5489 98.1173 28.089 98.1173 28.7578H96.2844C96.2844 28.5572 96.2178 28.3977 96.0847 28.2794C95.9516 28.1611 95.7775 28.0993 95.5574 28.0993H94.518C93.9241 28.0993 93.6272 28.2382 93.6272 28.5109V28.7321C93.6272 28.835 93.6681 28.9173 93.7449 28.9842C93.8217 29.0511 93.9344 29.1025 94.0777 29.1282L96.566 29.5809C97.0831 29.6735 97.5029 29.869 97.8255 30.1674C98.1429 30.4658 98.3016 30.8002 98.3016 31.1757V31.6696C98.3016 32.2663 98.0559 32.7345 97.5695 33.0843C97.0831 33.4341 96.4329 33.609 95.6188 33.609H94.39C93.5606 33.609 92.895 33.3878 92.3933 32.9505L92.4086 32.9454Z" fill="#153898"/>
<path d="M99.469 25.6814C99.254 25.4756 99.1465 25.203 99.1465 24.8635C99.1465 24.5239 99.254 24.2513 99.469 24.0455C99.6841 23.8397 99.9708 23.7368 100.324 23.7368C100.677 23.7368 100.964 23.8397 101.179 24.0455C101.394 24.2513 101.502 24.5239 101.502 24.8635C101.502 25.203 101.394 25.4756 101.179 25.6814C100.964 25.8872 100.677 25.9901 100.324 25.9901C99.9708 25.9901 99.6841 25.8872 99.469 25.6814ZM99.3974 26.6383H101.256V33.4958H99.3974V26.6383Z" fill="#153898"/>
<path d="M103.964 32.9455C103.59 32.5802 103.401 32.0092 103.401 31.2427V28.2332H102.198V26.6384H103.457V24.5652H105.265V26.6384H107.041V28.2332H105.265V31.1604C105.265 31.4176 105.311 31.6028 105.408 31.7263C105.505 31.8446 105.654 31.9063 105.864 31.9063H107.041V33.5011H105.731C104.927 33.5011 104.338 33.3159 103.964 32.9506V32.9455Z" fill="#153898"/>
<path d="M108.756 35.6618C108.28 35.2451 108.009 34.6998 107.958 34.0207H109.791C109.811 34.2213 109.893 34.3859 110.036 34.5094C110.18 34.6329 110.364 34.6946 110.584 34.6946H111.706C111.987 34.6946 112.217 34.5763 112.397 34.3448C112.576 34.1133 112.663 33.8046 112.663 33.4291V32.5339C112.453 32.8169 112.212 33.0381 111.946 33.2027C111.675 33.3622 111.409 33.4445 111.147 33.4445H110.246C109.524 33.4445 108.946 33.2027 108.511 32.7243C108.076 32.2459 107.855 31.6028 107.855 30.8054V26.6436H109.714V30.8363C109.714 31.1398 109.791 31.3816 109.939 31.5719C110.088 31.7623 110.287 31.8549 110.533 31.8549H111.327C111.629 31.8549 111.9 31.7314 112.146 31.4793C112.392 31.2273 112.566 30.8929 112.663 30.4813V26.6487H114.521V33.4394C114.521 34.0053 114.404 34.5043 114.173 34.9364C113.943 35.3685 113.61 35.7029 113.18 35.9396C112.75 36.1762 112.258 36.2945 111.7 36.2945H110.579C109.842 36.2945 109.233 36.0836 108.751 35.6669L108.756 35.6618Z" fill="#153898"/>
<path d="M120.476 33.2695C120.036 33.0432 119.693 32.7294 119.452 32.3127C119.211 31.9011 119.088 31.4227 119.088 30.8825V29.2723C119.088 28.7321 119.211 28.2537 119.457 27.837C119.703 27.4203 120.046 27.0962 120.491 26.8698C120.932 26.6435 121.444 26.5251 122.017 26.5251H123.246C123.819 26.5251 124.326 26.6383 124.771 26.8698C125.212 27.1013 125.56 27.4203 125.806 27.837C126.051 28.2537 126.174 28.7321 126.174 29.2723V30.8825C126.174 31.4227 126.051 31.9011 125.806 32.3127C125.56 32.7242 125.217 33.0432 124.771 33.2695C124.331 33.4959 123.814 33.6039 123.23 33.6039H122.002C121.428 33.6039 120.921 33.4907 120.476 33.2695ZM123.205 31.9988C123.543 31.9988 123.809 31.8805 124.014 31.649C124.218 31.4175 124.316 31.1088 124.316 30.7333V29.4009C124.316 29.0253 124.213 28.7218 124.014 28.4852C123.814 28.2485 123.548 28.1354 123.22 28.1354H122.043C121.715 28.1354 121.449 28.2537 121.249 28.4852C121.049 28.7167 120.947 29.0253 120.947 29.4009V30.7333C120.947 31.1088 121.049 31.4124 121.249 31.649C121.449 31.8805 121.71 31.9988 122.027 31.9988H123.205Z" fill="#153898"/>
<path d="M127.69 28.233H126.512V26.6382H127.69V26.1855C127.69 25.4447 127.925 24.8634 128.396 24.4467C128.867 24.03 129.518 23.8191 130.357 23.8191H131.34V25.4139H130.383C130.091 25.4139 129.881 25.4756 129.748 25.6042C129.615 25.7328 129.548 25.9335 129.548 26.2113V26.6382H131.192V28.233H129.548V33.4958H127.69V28.233Z" fill="#153898"/>
<path d="M51.9412 37.2512H53.8304V41.2227H58.2898V37.2512H60.179V46.8713H58.2898V42.8741H53.8304V46.8713H51.9412V37.2512Z" fill="#153898"/>
<path d="M62.5854 46.645C62.145 46.4186 61.802 46.1048 61.5614 45.6881C61.3207 45.2766 61.1979 44.7981 61.1979 44.258V42.6478C61.1979 42.1076 61.3208 41.6292 61.5665 41.2125C61.8123 40.7958 62.1553 40.4717 62.6007 40.2453C63.041 40.019 63.553 39.9006 64.1264 39.9006H65.3552C65.9286 39.9006 66.4355 40.0138 66.8809 40.2453C67.3212 40.4768 67.6694 40.7958 67.9152 41.2125C68.1609 41.6292 68.2838 42.1076 68.2838 42.6478V44.258C68.2838 44.7981 68.1609 45.2766 67.9152 45.6881C67.6694 46.0997 67.3264 46.4186 66.8809 46.645C66.4406 46.8714 65.9235 46.9794 65.3399 46.9794H64.1111C63.5376 46.9794 63.0308 46.8662 62.5854 46.645ZM65.3142 45.3743C65.6522 45.3743 65.9184 45.256 66.1232 45.0245C66.328 44.793 66.4253 44.4843 66.4253 44.1088V42.7764C66.4253 42.4008 66.3229 42.0973 66.1232 41.8607C65.9235 41.6292 65.6573 41.5108 65.3296 41.5108H64.152C63.8244 41.5108 63.5581 41.6292 63.3585 41.8607C63.1588 42.0922 63.0564 42.4008 63.0564 42.7764V44.1088C63.0564 44.4843 63.1588 44.7879 63.3585 45.0245C63.5581 45.256 63.8192 45.3743 64.1367 45.3743H65.3142Z" fill="#153898"/>
<path d="M73.8953 46.5268C73.3628 46.2233 72.9481 45.7963 72.6562 45.2407C72.3644 44.6851 72.2159 44.0472 72.2159 43.3218V40.7959C72.2159 40.0705 72.3644 39.4326 72.6614 38.877C72.9583 38.3214 73.3781 37.8944 73.9209 37.5909C74.4636 37.2874 75.0882 37.1382 75.7999 37.1382H77.2488C77.9348 37.1382 78.5339 37.2874 79.0561 37.5755C79.5783 37.8687 79.9777 38.2802 80.2644 38.805C80.5511 39.3297 80.6945 39.9419 80.6945 40.6415H78.8359C78.8359 40.0911 78.6875 39.6487 78.4008 39.3143C78.1089 38.9799 77.7249 38.8153 77.2539 38.8153H75.805C75.293 38.8153 74.8834 39.0056 74.5762 39.3863C74.2639 39.767 74.1103 40.266 74.1103 40.8782V43.2395C74.1103 43.8517 74.2588 44.3507 74.5608 44.7314C74.8629 45.1121 75.2571 45.3024 75.7487 45.3024H77.2283C77.7096 45.3024 78.1038 45.1172 78.411 44.7365C78.7182 44.361 78.8718 43.8671 78.8718 43.2549H80.7303C80.7303 43.9957 80.5818 44.6491 80.29 45.215C79.9982 45.7808 79.5886 46.213 79.0612 46.5216C78.5339 46.8303 77.9195 46.9795 77.2283 46.9795H75.7487C75.0472 46.9795 74.4277 46.8303 73.8953 46.5268Z" fill="#153898"/>
<path d="M81.5084 37.2512H83.3669V40.698C83.5666 40.4614 83.8175 40.2659 84.1144 40.1218C84.4114 39.9778 84.6981 39.9006 84.9695 39.9006H85.8194C86.5464 39.9006 87.1352 40.1321 87.5755 40.59C88.0158 41.0478 88.2411 41.6549 88.2411 42.406V46.8713H86.3825V42.4729C86.3825 42.1899 86.3058 41.9584 86.1573 41.7835C86.0088 41.6086 85.8142 41.5211 85.5736 41.5211H84.7237C84.4063 41.5211 84.1196 41.6394 83.8687 41.8709C83.6178 42.1024 83.454 42.4111 83.3669 42.7867V46.8662H81.5084V37.2461V37.2512Z" fill="#153898"/>
<path d="M89.7207 39.062C89.5057 38.8563 89.3982 38.5836 89.3982 38.2441C89.3982 37.9045 89.5057 37.6319 89.7207 37.4261C89.9358 37.2203 90.2225 37.1174 90.5758 37.1174C90.929 37.1174 91.2157 37.2203 91.4308 37.4261C91.6458 37.6319 91.7533 37.9045 91.7533 38.2441C91.7533 38.5836 91.6458 38.8563 91.4308 39.062C91.2157 39.2678 90.929 39.3707 90.5758 39.3707C90.2225 39.3707 89.9358 39.2678 89.7207 39.062ZM89.644 40.0138H91.5025V46.8713H89.644V40.0138Z" fill="#153898"/>
<path d="M95.926 37.2512H97.6105L100.744 42.9667L103.806 37.2512H105.49V46.8713H103.642V40.7855L101.63 44.4431C101.491 44.6901 101.353 44.865 101.215 44.973C101.072 45.0811 100.913 45.1325 100.728 45.1325H100.206L97.7743 40.7906V46.8765H95.926V37.2564V37.2512Z" fill="#153898"/>
<path d="M107.108 39.062C106.893 38.8563 106.785 38.5836 106.785 38.2441C106.785 37.9045 106.893 37.6319 107.108 37.4261C107.323 37.2203 107.61 37.1174 107.963 37.1174C108.316 37.1174 108.603 37.2203 108.818 37.4261C109.033 37.6319 109.14 37.9045 109.14 38.2441C109.14 38.5836 109.033 38.8563 108.818 39.062C108.603 39.2678 108.316 39.3707 107.963 39.3707C107.61 39.3707 107.323 39.2678 107.108 39.062ZM107.031 40.0138H108.89V46.8713H107.031V40.0138Z" fill="#153898"/>
<path d="M110.38 40.0138H112.105V40.8369C112.305 40.554 112.566 40.3276 112.883 40.1578C113.201 39.9881 113.523 39.9058 113.841 39.9058H114.66C115.387 39.9058 115.976 40.1373 116.416 40.5951C116.856 41.053 117.081 41.66 117.081 42.4111V46.8765H115.223V42.478C115.223 42.195 115.146 41.9635 114.998 41.7886C114.849 41.6137 114.655 41.5263 114.419 41.5263H113.6C113.283 41.5263 112.996 41.6446 112.745 41.8761C112.494 42.1076 112.33 42.4162 112.243 42.7918V46.8713H110.385V40.0138H110.38Z" fill="#153898"/>
<path d="M118.244 37.2512H120.102V40.698C120.302 40.4614 120.553 40.2659 120.85 40.1218C121.147 39.9778 121.433 39.9006 121.705 39.9006H122.555C123.282 39.9006 123.87 40.1321 124.311 40.59C124.751 41.0478 124.976 41.6549 124.976 42.406V46.8713H123.118V42.4729C123.118 42.1899 123.041 41.9584 122.892 41.7835C122.744 41.6086 122.549 41.5211 122.309 41.5211H121.459C121.141 41.5211 120.855 41.6394 120.604 41.8709C120.353 42.1024 120.189 42.4111 120.102 42.7867V46.8662H118.244V37.2461V37.2512Z" fill="#153898"/>
<path d="M130.782 46.5268C130.25 46.2233 129.835 45.7963 129.543 45.2407C129.251 44.6851 129.103 44.0472 129.103 43.3218V40.7959C129.103 40.0705 129.251 39.4326 129.548 38.877C129.845 38.3214 130.265 37.8944 130.808 37.5909C131.351 37.2874 131.975 37.1382 132.687 37.1382H134.136C134.822 37.1382 135.421 37.2874 135.943 37.5755C136.465 37.8687 136.865 38.2802 137.151 38.805C137.438 39.3297 137.581 39.9419 137.581 40.6415H135.723C135.723 40.0911 135.574 39.6487 135.288 39.3143C134.996 38.9799 134.612 38.8153 134.141 38.8153H132.692C132.18 38.8153 131.77 39.0056 131.463 39.3863C131.151 39.767 130.997 40.266 130.997 40.8782V43.2395C130.997 43.8517 131.146 44.3507 131.448 44.7314C131.75 45.1121 132.144 45.3024 132.636 45.3024H134.115C134.597 45.3024 134.991 45.1172 135.298 44.7365C135.605 44.361 135.759 43.8671 135.759 43.2549H137.617C137.617 43.9957 137.469 44.6491 137.177 45.215C136.885 45.7808 136.476 46.213 135.948 46.5216C135.421 46.8303 134.806 46.9795 134.115 46.9795H132.636C131.934 46.9795 131.315 46.8303 130.782 46.5268Z" fill="#153898"/>
<path d="M138.713 39.062C138.498 38.8563 138.39 38.5836 138.39 38.2441C138.39 37.9045 138.498 37.6319 138.713 37.4261C138.928 37.2203 139.215 37.1174 139.568 37.1174C139.921 37.1174 140.208 37.2203 140.423 37.4261C140.638 37.6319 140.746 37.9045 140.746 38.2441C140.746 38.5836 140.638 38.8563 140.423 39.062C140.208 39.2678 139.921 39.3707 139.568 39.3707C139.215 39.3707 138.928 39.2678 138.713 39.062ZM138.636 40.0138H140.495V46.8713H138.636V40.0138Z" fill="#153898"/>
<path d="M143.203 46.3207C142.829 45.9555 142.64 45.3845 142.64 44.6179V41.6084H141.437V40.0136H142.696V37.9404H144.503V40.0136H146.28V41.6084H144.503V44.5356C144.503 44.7928 144.55 44.978 144.647 45.1015C144.744 45.2198 144.893 45.2816 145.102 45.2816H146.28V46.8763H144.969C144.166 46.8763 143.577 46.6911 143.203 46.3259V46.3207Z" fill="#153898"/>
<path d="M147.995 49.037C147.519 48.6203 147.248 48.075 147.197 47.3959H149.029C149.05 47.5966 149.132 47.7612 149.275 47.8846C149.419 48.0081 149.603 48.0699 149.823 48.0699H150.944C151.226 48.0699 151.456 47.9515 151.635 47.72C151.815 47.4885 151.902 47.1799 151.902 46.8043V45.9092C151.692 46.1921 151.451 46.4133 151.185 46.578C150.914 46.7374 150.647 46.8198 150.386 46.8198H149.485C148.763 46.8198 148.185 46.578 147.749 46.0995C147.314 45.6211 147.094 44.978 147.094 44.1807V40.0188H148.953V44.2115C148.953 44.515 149.029 44.7568 149.178 44.9472C149.326 45.1375 149.526 45.2301 149.772 45.2301H150.565C150.867 45.2301 151.139 45.1067 151.385 44.8546C151.63 44.6025 151.804 44.2681 151.902 43.8566V40.0239H153.76V46.8146C153.76 47.3805 153.642 47.8795 153.412 48.3116C153.182 48.7438 152.849 49.0782 152.419 49.3148C151.989 49.5514 151.497 49.6698 150.939 49.6698H149.818C149.081 49.6698 148.471 49.4588 147.99 49.0421L147.995 49.037Z" fill="#153898"/>
</svg>
