<svg width="688" height="279" viewBox="0 0 688 279" fill="none" xmlns="http://www.w3.org/2000/svg">
<path d="M353.95 140.37H359.84V167.08H353.95V140.37Z" fill="white"/>
<path d="M365.79 140.37H371.64L382.81 158.29H382.88V140.37H388.39V167.08H382.5L371.36 149.2H371.29V167.08H365.78V140.37H365.79Z" fill="white"/>
<path d="M394.35 140.37H405.9C409.52 140.37 412.45 141.5 414.69 143.77C416.93 146.04 418.05 149.31 418.05 153.57C418.05 157.61 417.01 160.87 414.94 163.35C412.87 165.83 409.85 167.07 405.9 167.07H394.35V140.36V140.37ZM400.24 162.14H405.49C407.39 162.14 408.98 161.49 410.25 160.2C411.53 158.9 412.16 156.88 412.16 154.14C412.16 151.4 411.57 149.08 410.38 147.58C409.19 146.07 407.21 145.32 404.44 145.32H400.24V162.15V162.14Z" fill="white"/>
<path d="M444.51 156.98C444.51 160.52 443.52 163.19 441.53 164.98C439.54 166.78 436.72 167.67 433.08 167.67C429.44 167.67 426.59 166.78 424.62 165.01C422.66 163.24 421.68 160.56 421.68 156.97V140.36H427.57V156.97C427.57 158.72 427.95 160.12 428.71 161.18C429.47 162.24 430.93 162.77 433.08 162.77C435.23 162.77 436.57 162.32 437.39 161.4C438.22 160.49 438.63 159.01 438.63 156.97V140.36H444.52V156.97L444.51 156.98Z" fill="white"/>
<path d="M454.37 158.21C454.37 159.88 454.93 161.12 456.04 161.93C457.15 162.74 458.57 163.15 460.3 163.15C461.12 163.15 461.89 163.07 462.61 162.91C463.32 162.75 463.98 162.4 464.6 161.88C465.21 161.36 465.52 160.67 465.52 159.82C465.52 159.35 465.4 158.92 465.16 158.55C464.92 158.18 464.65 157.87 464.35 157.63C464.05 157.39 463.59 157.16 462.96 156.92C462.34 156.68 461.81 156.51 461.39 156.4C460.97 156.29 460.33 156.13 459.48 155.91C458.63 155.7 457.99 155.53 457.57 155.41C456.44 155.14 455.46 154.83 454.63 154.49C453.79 154.15 452.96 153.7 452.14 153.13C451.31 152.56 450.68 151.82 450.25 150.92C449.81 150.02 449.59 148.99 449.59 147.82C449.59 145.25 450.59 143.26 452.59 141.85C454.59 140.44 456.93 139.74 459.6 139.74C461.57 139.74 463.34 140.01 464.89 140.56C466.44 141.11 467.73 142.05 468.77 143.38C469.81 144.71 470.33 146.37 470.33 148.34H464.63C464.48 145.65 462.72 144.3 459.34 144.3C458.26 144.3 457.32 144.55 456.51 145.05C455.7 145.55 455.29 146.31 455.29 147.33C455.29 148.35 455.72 149.02 456.58 149.41C457.44 149.8 459.67 150.45 463.27 151.37C468.57 152.47 471.22 155.06 471.22 159.15C471.22 161.69 470.25 163.75 468.31 165.32C466.37 166.89 463.63 167.68 460.08 167.68C458.55 167.68 457.12 167.49 455.77 167.12C454.42 166.75 453.21 166.19 452.13 165.46C451.05 164.72 450.2 163.73 449.58 162.49C448.96 161.24 448.65 159.82 448.68 158.23H454.38L454.37 158.21Z" fill="white"/>
<path d="M480.18 145.31H472.16V140.37H494.09V145.31H486.07V167.08H480.18V145.31Z" fill="white"/>
<path d="M497.98 140.37H512.41C514.76 140.37 516.65 141.08 518.09 142.5C519.53 143.92 520.25 145.67 520.25 147.74C520.25 151.08 518.84 153.31 516.01 154.44V154.51C518.36 155.16 519.66 157.24 519.91 160.76C519.91 160.91 519.93 161.28 519.97 161.88C520.01 162.48 520.04 162.96 520.06 163.32C520.08 163.68 520.13 164.13 520.21 164.67C520.28 165.21 520.39 165.67 520.53 166.07C520.67 166.47 520.84 166.81 521.04 167.08H515.15C514.95 166.58 514.8 165.98 514.7 165.27C514.6 164.56 514.51 163.73 514.44 162.78C514.37 161.83 514.29 161.13 514.22 160.69C514.02 159.24 513.59 158.21 512.93 157.59C512.27 156.97 511.21 156.65 509.76 156.65H503.87V167.09H497.98V140.38V140.37ZM503.86 152.45H510.31C511.68 152.45 512.7 152.14 513.37 151.53C514.03 150.92 514.36 149.95 514.36 148.63C514.36 146.16 513.01 144.93 510.31 144.93H503.86V152.45Z" fill="white"/>
<path d="M523.98 140.37H529.87V167.08H523.98V140.37Z" fill="white"/>
<path d="M543.72 140.37H549.76L559.77 167.08H553.66L551.64 161.13H541.63L539.53 167.08H533.61L543.73 140.37H543.72ZM543.16 156.75H550.1L546.73 146.95H546.66L543.17 156.75H543.16Z" fill="white"/>
<path d="M562.66 140.37H568.55V162.14H581.6V167.08H562.67V140.37H562.66Z" fill="white"/>
<path d="M376.67 196C376.67 199.54 375.68 202.21 373.69 204C371.7 205.8 368.88 206.69 365.24 206.69C361.6 206.69 358.75 205.8 356.78 204.03C354.82 202.26 353.84 199.58 353.84 195.99V179.38H359.73V195.99C359.73 197.74 360.11 199.14 360.87 200.2C361.63 201.26 363.09 201.79 365.24 201.79C367.39 201.79 368.73 201.34 369.55 200.42C370.38 199.51 370.79 198.03 370.79 195.99V179.38H376.68V195.99L376.67 196Z" fill="white"/>
<path d="M381.39 179.39H387.24L398.41 197.31H398.48V179.39H403.99V206.1H398.1L386.96 188.22H386.89V206.1H381.38V179.39H381.39Z" fill="white"/>
<path d="M409.58 179.39H415.47V206.1H409.58V179.39Z" fill="white"/>
<path d="M434.24 206.09H427.6L418.94 179.38H424.98L430.94 198.16H431.01L437.05 179.38H443.12L434.23 206.09H434.24Z" fill="white"/>
<path d="M446.19 179.39H466.21V184.33H452.07V190.05H465.04V194.61H452.07V201.16H466.51V206.1H446.19V179.39Z" fill="white"/>
<path d="M470.89 179.39H485.32C487.67 179.39 489.56 180.1 491 181.52C492.44 182.94 493.16 184.69 493.16 186.76C493.16 190.1 491.75 192.33 488.92 193.46V193.53C491.27 194.18 492.57 196.26 492.82 199.78C492.82 199.93 492.84 200.3 492.88 200.9C492.92 201.5 492.95 201.98 492.97 202.34C492.99 202.7 493.04 203.15 493.12 203.69C493.19 204.23 493.3 204.69 493.44 205.09C493.58 205.49 493.75 205.83 493.95 206.1H488.06C487.86 205.6 487.71 205 487.61 204.29C487.51 203.58 487.42 202.75 487.35 201.8C487.28 200.85 487.2 200.15 487.13 199.71C486.93 198.26 486.5 197.23 485.84 196.61C485.18 195.99 484.12 195.67 482.67 195.67H476.78V206.11H470.89V179.4V179.39ZM476.78 191.47H483.23C484.6 191.47 485.62 191.16 486.29 190.55C486.95 189.94 487.28 188.97 487.28 187.65C487.28 185.18 485.93 183.95 483.23 183.95H476.78V191.47Z" fill="white"/>
<path d="M502.01 197.23C502.01 198.9 502.57 200.14 503.68 200.95C504.79 201.76 506.21 202.17 507.94 202.17C508.76 202.17 509.53 202.09 510.25 201.93C510.96 201.77 511.62 201.42 512.24 200.9C512.85 200.38 513.16 199.69 513.16 198.84C513.16 198.37 513.04 197.94 512.8 197.57C512.56 197.2 512.29 196.89 511.99 196.65C511.69 196.41 511.23 196.18 510.6 195.94C509.98 195.7 509.45 195.53 509.03 195.42C508.61 195.31 507.97 195.15 507.12 194.93C506.27 194.72 505.63 194.55 505.21 194.43C504.08 194.16 503.1 193.85 502.27 193.51C501.43 193.17 500.6 192.72 499.78 192.15C498.95 191.58 498.32 190.84 497.89 189.94C497.45 189.04 497.23 188.01 497.23 186.84C497.23 184.27 498.23 182.28 500.23 180.87C502.23 179.46 504.57 178.76 507.24 178.76C509.21 178.76 510.98 179.03 512.53 179.58C514.08 180.13 515.37 181.07 516.41 182.4C517.45 183.73 517.97 185.39 517.97 187.36H512.27C512.12 184.67 510.36 183.32 506.98 183.32C505.9 183.32 504.96 183.57 504.15 184.07C503.34 184.57 502.93 185.33 502.93 186.35C502.93 187.37 503.36 188.04 504.22 188.43C505.08 188.82 507.31 189.47 510.91 190.39C516.21 191.49 518.86 194.08 518.86 198.17C518.86 200.71 517.89 202.77 515.95 204.34C514.01 205.91 511.27 206.7 507.72 206.7C506.19 206.7 504.76 206.51 503.41 206.14C502.06 205.77 500.85 205.21 499.77 204.48C498.69 203.74 497.84 202.75 497.22 201.51C496.6 200.26 496.29 198.84 496.32 197.25H502.02L502.01 197.23Z" fill="white"/>
<path d="M523.11 179.39H529V206.1H523.11V179.39Z" fill="white"/>
<path d="M541.62 184.32H533.6V179.38H555.53V184.32H547.51V206.09H541.62V184.32Z" fill="white"/>
<path d="M567.82 195.7L558 179.39H564.6L570.86 189.94L577.08 179.39H583.64L573.7 195.85V206.1H567.81V195.7H567.82Z" fill="white"/>
<path d="M597.28 192.85C597.28 188.79 598.47 185.42 600.84 182.75C603.21 180.08 606.41 178.75 610.44 178.75C614.47 178.75 617.66 180.08 620.04 182.75C622.41 185.42 623.6 188.78 623.6 192.85C623.6 196.92 622.41 200.14 620.04 202.76C617.66 205.38 614.47 206.69 610.44 206.69C606.41 206.69 603.22 205.38 600.84 202.76C598.46 200.14 597.28 196.84 597.28 192.85ZM603.17 192.85C603.17 195.34 603.77 197.46 604.97 199.19C606.17 200.92 607.99 201.79 610.44 201.79C612.89 201.79 614.71 200.92 615.91 199.19C617.11 197.46 617.71 195.34 617.71 192.85C617.71 191.2 617.48 189.71 617.02 188.38C616.56 187.05 615.76 185.93 614.64 185.03C613.51 184.13 612.11 183.68 610.44 183.68C608.77 183.68 607.37 184.13 606.24 185.03C605.12 185.93 604.32 187.04 603.86 188.38C603.4 189.71 603.17 191.2 603.17 192.85Z" fill="white"/>
<path d="M627.64 179.39H646.46V184.33H633.52V190.5H644.73V195.06H633.52V206.09H627.63V179.38L627.64 179.39Z" fill="white"/>
<path d="M353.95 218.41H359.84V228.66H370.68V218.41H376.57V245.12H370.68V233.6H359.84V245.12H353.95V218.41Z" fill="white"/>
<path d="M380.23 231.87C380.23 227.81 381.42 224.44 383.79 221.77C386.16 219.1 389.36 217.77 393.39 217.77C397.42 217.77 400.61 219.1 402.99 221.77C405.36 224.44 406.55 227.8 406.55 231.87C406.55 235.94 405.36 239.16 402.99 241.78C400.61 244.4 397.42 245.71 393.39 245.71C389.36 245.71 386.17 244.4 383.79 241.78C381.41 239.16 380.23 235.86 380.23 231.87ZM386.11 231.87C386.11 234.36 386.71 236.48 387.91 238.21C389.11 239.94 390.93 240.81 393.38 240.81C395.83 240.81 397.65 239.94 398.85 238.21C400.05 236.48 400.65 234.36 400.65 231.87C400.65 230.22 400.42 228.73 399.96 227.4C399.5 226.07 398.7 224.95 397.58 224.05C396.45 223.15 395.05 222.7 393.38 222.7C391.71 222.7 390.31 223.15 389.18 224.05C388.06 224.95 387.26 226.06 386.8 227.4C386.34 228.73 386.11 230.22 386.11 231.87Z" fill="white"/>
<path d="M429.19 227.38C428.99 226.06 428.33 224.95 427.2 224.05C426.08 223.15 424.79 222.7 423.34 222.7C421.67 222.7 420.27 223.15 419.14 224.05C418.02 224.95 417.22 226.06 416.76 227.4C416.3 228.73 416.07 230.22 416.07 231.87C416.07 234.36 416.67 236.48 417.87 238.21C419.07 239.94 420.89 240.81 423.34 240.81C425.09 240.81 426.48 240.27 427.52 239.2C428.56 238.13 429.19 236.67 429.41 234.82H435.11C434.81 238.19 433.6 240.84 431.47 242.79C429.35 244.74 426.63 245.71 423.33 245.71C419.31 245.71 416.11 244.4 413.73 241.78C411.35 239.16 410.17 235.86 410.17 231.87C410.17 227.88 411.36 224.44 413.73 221.77C416.1 219.1 419.3 217.77 423.33 217.77C426.35 217.77 428.95 218.62 431.11 220.33C433.27 222.04 434.53 224.39 434.88 227.38H429.18H429.19Z" fill="white"/>
<path d="M439.53 218.41H445.42V228.66H456.26V218.41H462.15V245.12H456.26V233.6H445.42V245.12H439.53V218.41Z" fill="white"/>
<path d="M469.22 218.41H475.11V245.12H469.22V218.41Z" fill="white"/>
<path d="M482.18 218.41H490.47L496.73 236.78H496.8L502.72 218.41H511.01V245.12H505.5V226.19H505.43L498.87 245.12H494.33L487.77 226.38H487.7V245.12H482.19V218.41H482.18Z" fill="white"/>
<path d="M518.09 218.41H523.98V245.12H518.09V218.41Z" fill="white"/>
<path d="M531.06 218.41H536.91L548.08 236.33H548.15V218.41H553.66V245.12H547.77L536.63 227.24H536.56V245.12H531.05V218.41H531.06Z" fill="white"/>
<path d="M558.8 218.41H564.69V228.66H575.53V218.41H581.42V245.12H575.53V233.6H564.69V245.12H558.8V218.41Z" fill="white"/>
<path d="M618.37 227.38C618.17 226.06 617.51 224.95 616.38 224.05C615.26 223.15 613.97 222.7 612.52 222.7C610.85 222.7 609.45 223.15 608.32 224.05C607.2 224.95 606.4 226.06 605.94 227.4C605.48 228.73 605.25 230.22 605.25 231.87C605.25 234.36 605.85 236.48 607.05 238.21C608.25 239.94 610.07 240.81 612.52 240.81C614.27 240.81 615.66 240.27 616.7 239.2C617.74 238.13 618.37 236.67 618.59 234.82H624.29C623.99 238.19 622.78 240.84 620.65 242.79C618.53 244.74 615.81 245.71 612.51 245.71C608.49 245.71 605.29 244.4 602.91 241.78C600.53 239.16 599.35 235.86 599.35 231.87C599.35 227.88 600.54 224.44 602.91 221.77C605.28 219.1 608.48 217.77 612.51 217.77C615.53 217.77 618.13 218.62 620.29 220.33C622.45 222.04 623.71 224.39 624.06 227.38H618.36H618.37Z" fill="white"/>
<path d="M627.97 218.41H633.86V245.12H627.97V218.41Z" fill="white"/>
<path d="M645.73 223.34H637.71V218.4H659.64V223.34H651.62V245.11H645.73V223.34Z" fill="white"/>
<path d="M671.93 234.72L662.11 218.41H668.71L674.97 228.96L681.19 218.41H687.75L677.81 234.87V245.12H671.92V234.72H671.93Z" fill="white"/>
<path fill-rule="evenodd" clip-rule="evenodd" d="M232 245.12C188.18 254.76 189.48 277.01 137.76 278.77C64.81 281.26 44.68 202.98 0 175.15C65.91 144.01 101.38 223.43 140.27 242.56C140.72 242.78 141.16 242.99 141.61 243.19C141.8 243.28 141.99 243.36 142.17 243.44C142.68 243.66 143.18 243.88 143.69 244.08L144.06 244.22C144.63 244.44 145.2 244.64 145.77 244.83L145.98 244.9C146.59 245.1 147.21 245.29 147.83 245.45L147.92 245.47C148.57 245.64 149.22 245.8 149.87 245.93H149.88L149.94 245.94C150.54 246.06 151.13 246.18 151.72 246.29L151.95 246.33C152.46 246.43 152.97 246.52 153.48 246.61L153.96 246.69C154.36 246.76 154.76 246.82 155.15 246.89C155.46 246.94 155.76 246.99 156.07 247.03L156.62 247.11L156.77 247.13C157.26 247.2 157.74 247.27 158.22 247.33L158.36 247.35C172.28 249.17 182.32 247.69 191.2 245.86L191.32 245.84C194.5 245.18 197.54 244.47 200.55 243.86H200.58C200.92 243.78 201.27 243.71 201.61 243.65C201.94 243.58 202.28 243.52 202.61 243.46L202.71 243.44C203.04 243.38 203.37 243.32 203.7 243.26H203.75C204.42 243.13 205.1 243.02 205.78 242.91L205.9 242.89C206.23 242.84 206.56 242.79 206.89 242.75H206.96C207.3 242.69 207.64 242.65 207.98 242.61C208.31 242.57 208.65 242.53 208.98 242.49H209.12C209.46 242.44 209.8 242.41 210.14 242.38H210.15C210.51 242.35 210.86 242.32 211.22 242.29H211.24C211.58 242.26 211.93 242.24 212.27 242.23H212.39C212.74 242.21 213.08 242.19 213.43 242.18H213.47C213.82 242.17 214.18 242.16 214.53 242.16H214.58C214.94 242.16 215.3 242.16 215.66 242.16H215.76C216.5 242.17 217.24 242.2 218 242.24H218.06C218.43 242.27 218.81 242.29 219.19 242.32H219.29C220.06 242.39 220.85 242.47 221.64 242.58H221.7C222.09 242.64 222.48 242.69 222.87 242.75L223.01 242.77C223.81 242.89 224.62 243.04 225.44 243.2L225.54 243.22C225.94 243.3 226.35 243.39 226.76 243.48L226.91 243.51C227.74 243.7 228.58 243.91 229.44 244.14L229.62 244.19C230.04 244.3 230.46 244.42 230.88 244.55L231.05 244.6C231.34 244.68 231.62 244.77 231.91 244.86L231.99 245.09L232 245.12ZM180.59 110.9C184.95 110.9 188.49 114.43 188.49 118.79C188.49 123.15 184.96 126.69 180.59 126.69C176.22 126.69 172.7 123.16 172.7 118.79C172.7 114.42 176.23 110.9 180.59 110.9ZM180.59 102.57C176.11 102.57 172.05 104.39 169.12 107.32C166.18 110.26 164.36 114.32 164.36 118.79C164.36 123.26 166.18 127.33 169.11 130.26C169.34 130.49 169.57 130.71 169.81 130.93L171.34 129.21C171.13 129.03 170.93 128.83 170.73 128.64C168.21 126.12 166.65 122.64 166.65 118.8C166.65 114.96 168.21 111.47 170.72 108.96C173.24 106.44 176.72 104.88 180.56 104.88C184.4 104.88 187.89 106.44 190.4 108.96C192.92 111.48 194.47 114.96 194.47 118.8C194.47 122.64 192.91 126.13 190.39 128.64C190.2 128.83 190.01 129.01 189.82 129.18L191.35 130.9C191.58 130.7 191.8 130.49 192.02 130.27C194.96 127.33 196.77 123.28 196.77 118.8C196.77 114.32 194.95 110.27 192.01 107.33C189.07 104.39 185.02 102.58 180.54 102.58L180.59 102.57ZM185.29 96.09L184.86 92.95L184.75 92.13L183.94 91.97C183.01 91.79 181.79 91.71 180.6 91.71C179.41 91.71 178.16 91.8 177.25 91.97L176.44 92.13L176.33 92.95L175.9 96.09C175.46 96.18 175.03 96.28 174.61 96.39C174.17 96.51 173.74 96.64 173.32 96.77L171.37 94.27L170.87 93.62L170.09 93.89C169.22 94.19 168.11 94.73 167.06 95.34C166.01 95.94 164.99 96.63 164.29 97.24L163.67 97.78L163.98 98.54L165.18 101.49C164.85 101.79 164.53 102.09 164.21 102.4C163.9 102.71 163.59 103.04 163.29 103.37L160.34 102.17L159.58 101.86L159.04 102.48C158.43 103.18 157.74 104.2 157.14 105.25C156.54 106.29 156 107.39 155.7 108.28L155.43 109.06L156.08 109.56L158.58 111.5C158.44 111.92 158.31 112.35 158.2 112.79C158.09 113.21 157.99 113.64 157.9 114.08L154.76 114.51L153.94 114.62L153.78 115.43C153.61 116.34 153.52 117.57 153.52 118.78C153.52 119.99 153.61 121.2 153.78 122.12L153.94 122.93L154.76 123.04L157.9 123.47C157.99 123.91 158.09 124.34 158.2 124.76C158.32 125.19 158.44 125.62 158.58 126.05L156.08 127.99L155.43 128.49L155.7 129.27C156 130.14 156.54 131.25 157.15 132.3C157.75 133.35 158.44 134.36 159.05 135.07L159.59 135.7L160.35 135.39L163.29 134.19C163.59 134.53 163.89 134.85 164.2 135.16C164.51 135.47 164.84 135.78 165.16 136.07L165.1 136.22L166.73 134.39C166.42 134.11 166.11 133.83 165.82 133.54C165.19 132.91 164.61 132.25 164.09 131.59L160.26 132.94C159.88 132.42 159.48 131.8 159.12 131.17C158.75 130.53 158.41 129.87 158.15 129.29L161.22 126.61C160.9 125.82 160.63 125.01 160.4 124.17C160.18 123.34 160.01 122.5 159.89 121.65L155.9 120.88C155.83 120.24 155.8 119.51 155.8 118.77C155.8 118.03 155.84 117.29 155.9 116.65L159.89 115.88C160.01 115.03 160.18 114.19 160.4 113.36C160.62 112.53 160.89 111.72 161.22 110.92L158.16 108.24C158.42 107.66 158.75 107.01 159.12 106.37C159.49 105.72 159.89 105.1 160.27 104.59L164.1 105.94C164.63 105.26 165.21 104.61 165.82 103.99C166.44 103.37 167.09 102.79 167.77 102.26L166.42 98.43C166.94 98.05 167.56 97.65 168.19 97.29C168.83 96.92 169.49 96.58 170.07 96.32L172.74 99.39C173.54 99.07 174.35 98.79 175.18 98.57C176.01 98.35 176.86 98.18 177.71 98.06L178.47 94.07C179.1 94 179.84 93.97 180.59 93.97C181.34 93.97 182.06 94 182.7 94.07L183.46 98.06C184.31 98.18 185.15 98.35 185.99 98.57C186.83 98.79 187.64 99.07 188.44 99.39L191.11 96.32C191.69 96.58 192.35 96.91 192.99 97.28C193.63 97.65 194.25 98.05 194.77 98.43L193.42 102.26C194.12 102.8 194.77 103.38 195.37 103.98C196 104.61 196.58 105.27 197.1 105.93L200.93 104.58C201.31 105.1 201.71 105.71 202.08 106.36C202.45 107 202.78 107.65 203.04 108.24L199.97 110.92C200.29 111.71 200.56 112.53 200.79 113.36C201.01 114.19 201.18 115.03 201.3 115.88L205.29 116.65C205.36 117.28 205.39 118.02 205.39 118.77C205.39 119.52 205.36 120.24 205.29 120.88L201.3 121.65C201.18 122.51 201.01 123.35 200.79 124.17C200.57 125 200.29 125.82 199.97 126.61L203.04 129.29C202.78 129.87 202.44 130.53 202.07 131.17C201.7 131.8 201.31 132.42 200.93 132.94L197.1 131.59C196.56 132.29 195.98 132.94 195.38 133.54C195.1 133.82 194.82 134.09 194.52 134.35L196.05 136.07C196.37 135.78 196.69 135.48 197 135.17C197.32 134.85 197.62 134.53 197.91 134.2L200.85 135.4L201.61 135.71L202.15 135.08C202.76 134.37 203.45 133.36 204.05 132.31C204.66 131.25 205.2 130.14 205.5 129.28L205.77 128.5L205.12 128L202.62 126.06C202.76 125.64 202.89 125.21 203.01 124.77C203.12 124.34 203.22 123.91 203.31 123.48L206.45 123.05L207.27 122.94L207.42 122.13C207.6 121.21 207.68 119.99 207.68 118.79C207.68 117.59 207.59 116.35 207.42 115.44L207.27 114.63L206.45 114.52L203.31 114.09C203.22 113.65 203.12 113.22 203.01 112.8C202.89 112.37 202.77 111.94 202.63 111.51L205.13 109.57L205.78 109.07L205.51 108.29C205.2 107.4 204.67 106.3 204.06 105.26C203.45 104.2 202.76 103.18 202.16 102.49L201.62 101.87L200.86 102.18L197.92 103.38C197.62 103.04 197.31 102.72 197.01 102.41C196.69 102.1 196.37 101.79 196.05 101.5L197.25 98.55L197.56 97.79L196.93 97.25C196.22 96.63 195.2 95.95 194.17 95.35C193.11 94.74 192.01 94.2001 191.14 93.9L190.36 93.63L189.86 94.28L187.92 96.78C187.5 96.64 187.07 96.51 186.63 96.4C186.21 96.29 185.78 96.19 185.34 96.1L185.29 96.09ZM180.59 0.420044C126.19 67.85 130.49 111.02 151.26 129.94L151.2 129.78V129.76L151.03 129.32V129.29L150.96 129.13L150.9 128.97L150.8 128.68V128.64L150.73 128.47L150.68 128.3L150.57 127.93L150.45 127.51L150.38 127.26C150.33 127.09 150.28 126.91 150.24 126.74L150.19 126.54C150.14 126.35 150.1 126.16 150.05 125.97L150 125.77C149.96 125.58 149.92 125.4 149.88 125.21L149.85 125.05C149.81 124.84 149.77 124.63 149.73 124.42L149.71 124.29C149.67 124.05 149.63 123.82 149.59 123.58C149.55 123.31 149.51 123.05 149.48 122.79C149.31 121.47 149.23 120.14 149.23 118.8C149.23 118.53 149.23 118.26 149.23 117.99C149.23 117.72 149.25 117.45 149.26 117.19C149.27 116.92 149.29 116.66 149.31 116.39C149.33 116.12 149.35 115.86 149.38 115.6C149.41 115.34 149.44 115.07 149.47 114.81C149.5 114.55 149.54 114.29 149.58 114.03C149.62 113.77 149.66 113.51 149.71 113.25C149.76 112.99 149.8 112.74 149.86 112.48C149.91 112.22 149.97 111.97 150.03 111.72C150.09 111.47 150.15 111.22 150.21 110.97C150.27 110.72 150.34 110.47 150.41 110.22C150.48 109.97 150.55 109.73 150.63 109.48C150.71 109.24 150.78 108.99 150.87 108.75C151.03 108.26 151.21 107.78 151.4 107.31C151.49 107.07 151.59 106.84 151.69 106.6C151.79 106.37 151.89 106.13 152 105.9C152.1 105.67 152.21 105.44 152.32 105.21C152.65 104.52 153 103.85 153.38 103.2C153.51 102.98 153.63 102.76 153.76 102.55C153.89 102.33 154.02 102.12 154.16 101.91C154.3 101.7 154.43 101.49 154.57 101.28C154.99 100.65 155.44 100.04 155.9 99.45C156.05 99.25 156.21 99.06 156.37 98.86C156.53 98.67 156.69 98.47 156.86 98.28C157.02 98.09 157.19 97.9 157.36 97.72C157.53 97.53 157.7 97.35 157.87 97.17C158.22 96.81 158.57 96.45 158.93 96.11C159.29 95.76 159.67 95.43 160.04 95.1C160.23 94.94 160.42 94.7701 160.61 94.61C161 94.29 161.39 93.98 161.79 93.68C162.39 93.23 163.01 92.8 163.65 92.39C163.86 92.25 164.08 92.12 164.29 91.99C164.51 91.86 164.72 91.73 164.94 91.6C165.6 91.22 166.27 90.87 166.95 90.54C167.41 90.32 167.87 90.11 168.34 89.91C169.28 89.51 170.24 89.16 171.22 88.86C171.47 88.78 171.71 88.71 171.96 88.64C172.21 88.57 172.46 88.5 172.71 88.44C172.96 88.38 173.21 88.31 173.47 88.26C173.98 88.14 174.49 88.04 175 87.95C175.26 87.9 175.52 87.86 175.78 87.82C176.04 87.78 176.3 87.74 176.56 87.71C177.08 87.64 177.61 87.59 178.14 87.55C178.41 87.53 178.67 87.51 178.94 87.5C179.21 87.49 179.48 87.48 179.74 87.47C180.01 87.47 180.28 87.46 180.55 87.46C180.82 87.46 181.09 87.46 181.36 87.47C181.9 87.48 182.43 87.51 182.96 87.55C183.23 87.57 183.49 87.59 183.75 87.62C184.01 87.65 184.28 87.68 184.54 87.71C184.8 87.74 185.06 87.78 185.32 87.82C185.58 87.86 185.84 87.9 186.1 87.95C186.36 88 186.61 88.04 186.87 88.1C187.64 88.26 188.39 88.44 189.14 88.65C189.64 88.79 190.13 88.94 190.61 89.11C190.85 89.19 191.1 89.28 191.33 89.36C191.57 89.45 191.81 89.54 192.05 89.63C192.29 89.72 192.52 89.82 192.76 89.92C192.99 90.02 193.23 90.12 193.46 90.23C193.69 90.33 193.92 90.44 194.15 90.55C194.38 90.66 194.61 90.77 194.83 90.89C195.06 91.01 195.28 91.12 195.5 91.24C195.72 91.36 195.94 91.48 196.16 91.61C196.6 91.86 197.03 92.12 197.45 92.4C197.87 92.67 198.29 92.95 198.7 93.25C198.91 93.4 199.11 93.54 199.31 93.69C199.91 94.14 200.5 94.61 201.07 95.11C201.26 95.2701 201.45 95.44 201.63 95.61C201.82 95.78 202 95.95 202.18 96.12C202.36 96.29 202.54 96.47 202.72 96.65C202.9 96.83 203.07 97.01 203.25 97.19C203.42 97.37 203.59 97.56 203.76 97.74C203.93 97.93 204.09 98.11 204.26 98.3C204.42 98.49 204.59 98.68 204.75 98.88C204.91 99.07 205.07 99.2701 205.22 99.47C205.53 99.86 205.83 100.27 206.12 100.68C206.27 100.89 206.41 101.09 206.55 101.3C206.69 101.51 206.83 101.72 206.96 101.93C207.1 102.14 207.23 102.36 207.36 102.57C207.49 102.79 207.62 103 207.75 103.22C207.88 103.44 208 103.66 208.12 103.88C208.24 104.1 208.36 104.33 208.47 104.55C208.59 104.78 208.7 105 208.81 105.23C208.92 105.46 209.03 105.69 209.13 105.92C209.23 106.15 209.34 106.38 209.44 106.62C209.54 106.85 209.64 107.09 209.73 107.33C209.82 107.57 209.91 107.81 210 108.05C210.09 108.29 210.17 108.53 210.26 108.77C210.34 109.01 210.42 109.26 210.5 109.5C210.58 109.75 210.65 109.99 210.72 110.24C210.79 110.49 210.86 110.74 210.92 110.99C210.98 111.24 211.05 111.49 211.1 111.74C211.16 111.99 211.21 112.25 211.27 112.5C211.32 112.76 211.37 113.01 211.42 113.27C211.47 113.53 211.51 113.79 211.55 114.05C211.59 114.31 211.63 114.57 211.66 114.83C211.69 115.09 211.72 115.35 211.75 115.62C211.78 115.88 211.8 116.15 211.82 116.41C211.84 116.68 211.86 116.94 211.87 117.21C211.88 117.48 211.89 117.75 211.9 118.01C211.9 118.28 211.9 118.55 211.9 118.82C211.9 119.09 211.9 119.35 211.9 119.62V119.65C211.9 119.91 211.88 120.17 211.87 120.43V120.47C211.84 120.98 211.81 121.49 211.75 121.99V122.03L211.74 122.09C211.72 122.32 211.69 122.55 211.66 122.79V122.81V122.82V122.85C211.63 123.09 211.59 123.33 211.56 123.57V123.6L211.54 123.69C211.51 123.89 211.48 124.09 211.44 124.29L211.4 124.5C211.37 124.68 211.34 124.85 211.3 125.02L211.25 125.27C211.22 125.44 211.18 125.6 211.14 125.76L211.06 126.08L210.97 126.47L210.89 126.79L210.84 126.97L210.76 127.25L210.66 127.61V127.65L210.6 127.82L210.55 127.99L210.41 128.44L210.39 128.49L210.34 128.66L210.17 129.15L210.11 129.31L209.93 129.8L209.87 129.96C230.65 111.04 234.95 67.86 180.54 0.440044L180.59 0.420044ZM71.02 69.96C57.66 134.59 74.28 183.79 129.65 221.14V140.54H154.78C133.96 107.75 102.23 102.43 71.02 69.96Z" fill="white"/>
<path fill-rule="evenodd" clip-rule="evenodd" d="M163.61 140.19H197.31V213.1C197.31 222.37 189.73 229.95 180.46 229.95C171.19 229.95 163.61 222.37 163.61 213.1V140.19Z" fill="white"/>
<path fill-rule="evenodd" clip-rule="evenodd" d="M301.41 140.54H336.36V245.36H301.41V209.68H266.49V245.36H231.54V140.54H266.49V174.81H301.41V140.54Z" fill="white"/>
</svg>
