<svg width="321" height="115" viewBox="0 0 321 115" fill="none" xmlns="http://www.w3.org/2000/svg">
<g clip-path="url(#clip0_3744_6014)">
<path d="M74.4356 51.8381L63.678 46.9723L52.9204 51.8381V71.6716L63.678 66.7793L74.4356 71.6716V51.8381Z" fill="white"/>
<path d="M74.4356 23.1192L63.678 18.2534L52.9204 23.1192V42.9527L63.678 38.0605L74.4356 42.9527V23.1192Z" fill="white"/>
<path d="M9.89001 23.1192V42.9527L18.7492 18.2534L9.89001 23.1192Z" fill="white"/>
<path d="M22.546 18.2534L31.4052 42.9527V23.1192L22.546 18.2534Z" fill="white"/>
<path d="M18.8283 18.2534V38.0605L9.89001 42.9527L18.7492 18.2534H18.8283Z" fill="#FDB726"/>
<path d="M31.4052 42.9527L22.4669 38.0605V18.2534H22.546L31.4052 42.9527Z" fill="#FDB726"/>
<path d="M31.4052 68.9743V52.0762H9.89001V71.7774C9.89001 83.6247 19.4611 93.2505 31.2998 93.2505H52.9204V71.6717H34.0683C32.5917 71.6717 31.4052 70.4817 31.4052 69.0008V68.9743Z" fill="white"/>
<path d="M96.8737 18.3063H100.829V38.4042H96.8737V18.3063Z" fill="white"/>
<path d="M103.834 24.0713H107.447V25.7902C107.869 25.2084 108.422 24.7324 109.081 24.3621C109.741 24.0184 110.426 23.8333 111.085 23.8333H112.799C114.328 23.8333 115.541 24.3093 116.464 25.2613C117.387 26.2133 117.862 27.4826 117.862 29.0429V38.3778H113.959V29.2015C113.959 28.6197 113.801 28.1173 113.485 27.7735C113.168 27.4033 112.773 27.2182 112.272 27.2182H110.558C109.899 27.2182 109.292 27.4562 108.765 27.9586C108.238 28.4346 107.895 29.0957 107.71 29.8626V38.3778H103.808V24.0713H103.834Z" fill="white"/>
<path d="M121.263 37.0555C120.234 36.0242 119.707 34.6755 119.707 32.9831V29.7039C119.707 28.5404 119.944 27.509 120.445 26.6099C120.946 25.7108 121.632 25.0232 122.528 24.5472C123.425 24.0712 124.453 23.8068 125.64 23.8068H127.222C127.775 23.8068 128.329 23.939 128.909 24.177C129.489 24.415 129.964 24.7323 130.333 25.129V18.3063H134.235V38.4042H130.623V36.5002C130.254 37.1349 129.726 37.6373 129.067 38.034C128.408 38.4307 127.749 38.6158 127.037 38.6158H125.35C123.662 38.6158 122.291 38.0869 121.236 37.0555H121.263ZM127.485 35.2573C128.276 35.2573 128.909 34.9664 129.436 34.4111C129.964 33.8557 130.254 33.0888 130.333 32.1633V29.6775C130.201 28.937 129.911 28.3288 129.463 27.8792C129.015 27.4297 128.487 27.2181 127.881 27.2181H126.141C125.376 27.2181 124.77 27.4826 124.295 27.985C123.82 28.5139 123.583 29.175 123.583 30.0213V32.7186C123.583 33.4855 123.794 34.0937 124.216 34.5697C124.638 35.0457 125.191 35.2837 125.851 35.2837H127.485V35.2573Z" fill="white"/>
<path d="M138.058 37.082C137.136 36.0507 136.687 34.702 136.687 33.0624V24.0712H140.59V33.1153C140.59 33.75 140.748 34.2524 141.064 34.6491C141.381 35.0458 141.803 35.2309 142.303 35.2309H143.965C144.597 35.2309 145.177 34.9664 145.678 34.4376C146.206 33.9087 146.549 33.2211 146.759 32.3484V24.0448H150.662V38.3514H147.049V36.5267C146.601 37.1349 146.074 37.6374 145.441 38.0076C144.808 38.3778 144.176 38.5894 143.595 38.5894H141.697C140.194 38.5894 138.981 38.0869 138.058 37.0556V37.082Z" fill="white"/>
<path d="M154.116 37.2407C153.061 36.3151 152.534 35.1251 152.534 33.6178H156.357C156.357 34.1467 156.541 34.5433 156.884 34.8607C157.227 35.178 157.702 35.3367 158.282 35.3367H160.866C161.999 35.3367 162.579 35.0193 162.579 34.3847V33.9087C162.579 33.7236 162.474 33.5384 162.289 33.3798C162.105 33.2211 161.841 33.1153 161.525 33.0624L156.568 32.1898C155.408 32.0047 154.485 31.5815 153.799 30.9469C153.114 30.3122 152.771 29.5453 152.771 28.6991V27.7471C152.771 26.5306 153.272 25.5786 154.274 24.8646C155.276 24.177 156.673 23.8333 158.466 23.8333H160.707C162.316 23.8333 163.608 24.2564 164.583 25.1026C165.559 25.9488 166.06 27.0859 166.06 28.4875H162.237C162.237 28.0644 162.105 27.7206 161.815 27.4826C161.551 27.2446 161.182 27.1124 160.707 27.1124H158.545C157.306 27.1124 156.673 27.4033 156.673 27.9851V28.4346C156.673 28.6462 156.752 28.8313 156.911 28.9635C157.069 29.0957 157.306 29.2015 157.622 29.2544L162.843 30.2064C163.924 30.3915 164.794 30.8146 165.48 31.4229C166.139 32.0575 166.482 32.7451 166.482 33.5384V34.5698C166.482 35.8127 165.981 36.7911 164.952 37.5316C163.924 38.2456 162.579 38.6158 160.866 38.6158H158.282C156.541 38.6158 155.144 38.1663 154.116 37.2407Z" fill="white"/>
<path d="M170.595 37.2406C169.804 36.4737 169.435 35.2837 169.435 33.6706V27.3768H166.93V24.0447H169.567V19.7343H173.337V24.0712H177.055V27.4032H173.337V33.5119C173.337 34.0408 173.442 34.4375 173.627 34.6755C173.838 34.9135 174.154 35.0457 174.576 35.0457H177.028V38.3777H174.286C172.599 38.3777 171.386 38.0075 170.595 37.2406Z" fill="white"/>
<path d="M179.085 24.0712H182.697V25.8958C183.066 25.3405 183.567 24.8909 184.253 24.5207C184.938 24.1769 185.65 23.9918 186.389 23.9918H188.34V27.3767H186.389C185.387 27.3767 184.569 27.6941 183.936 28.3023C183.304 28.9105 182.987 29.7039 182.987 30.6559V38.3777H179.085V24.0712Z" fill="white"/>
<path d="M190.001 22.0879C189.552 21.6647 189.342 21.083 189.342 20.369C189.342 19.6549 189.579 19.0996 190.001 18.6501C190.449 18.2269 191.055 18.0154 191.794 18.0154C192.532 18.0154 193.138 18.2269 193.587 18.6501C194.035 19.0732 194.246 19.6549 194.246 20.369C194.246 21.083 194.008 21.6383 193.587 22.0879C193.138 22.511 192.532 22.7225 191.794 22.7225C191.055 22.7225 190.449 22.511 190.001 22.0879ZM189.843 24.0712H193.745V38.3778H189.843V24.0712Z" fill="white"/>
<path d="M197.753 37.5051C196.83 36.7646 196.381 35.7862 196.381 34.5433V33.4855C196.381 32.269 196.856 31.317 197.805 30.5766C198.754 29.8361 200.02 29.4659 201.576 29.4659H203.316C203.817 29.4659 204.344 29.5452 204.924 29.6774C205.504 29.8097 206.032 29.9948 206.506 30.2328V28.7519C206.506 28.2759 206.348 27.8792 206.032 27.5883C205.715 27.2974 205.293 27.1388 204.792 27.1388H202.34C201.813 27.1388 201.365 27.271 201.048 27.509C200.732 27.747 200.574 28.0908 200.574 28.5139H196.803C196.803 27.1123 197.304 26.0016 198.333 25.129C199.361 24.2827 200.706 23.8596 202.34 23.8596H204.792C206.48 23.8596 207.825 24.3092 208.853 25.1819C209.881 26.0545 210.409 27.2445 210.409 28.7254V38.4042H206.796V36.6853C206.348 37.2671 205.768 37.7431 205.109 38.1133C204.45 38.4571 203.79 38.6422 203.131 38.6422H201.365C199.888 38.6422 198.675 38.272 197.753 37.5315V37.5051ZM203.421 35.6275C204.133 35.6275 204.766 35.4424 205.32 35.0722C205.873 34.7019 206.269 34.2259 206.533 33.6177V33.1417C206.216 32.9037 205.794 32.7186 205.267 32.5864C204.713 32.4541 204.133 32.3748 203.527 32.3748H201.734C201.286 32.3748 200.917 32.4806 200.626 32.7186C200.336 32.9566 200.205 33.2475 200.205 33.6441V34.3846C200.205 34.7548 200.363 35.0457 200.679 35.2837C200.996 35.5217 201.418 35.6275 201.918 35.6275H203.474H203.421Z" fill="white"/>
<path d="M214.021 37.32C213.23 36.606 212.834 35.4953 212.834 33.988V18.3063H216.736V33.75C216.736 34.1995 216.842 34.5433 217.053 34.7549C217.264 34.9664 217.607 35.0722 218.055 35.0722H219.61V38.4042H217.791C216.104 38.4042 214.838 38.034 214.047 37.32H214.021Z" fill="white"/>
<path d="M100.249 65.1134C99.1676 64.5052 98.3502 63.6589 97.7701 62.5747C97.1901 61.4905 96.8737 60.2211 96.8737 58.7931V45.703H100.829V58.6609C100.829 59.798 101.119 60.75 101.699 61.4376C102.279 62.1516 103.043 62.4954 103.966 62.4954H106.998C107.948 62.4954 108.712 62.1516 109.319 61.4376C109.899 60.7236 110.215 59.798 110.215 58.6609V45.703H114.17V58.7931C114.17 60.2211 113.88 61.4905 113.274 62.5747C112.694 63.6589 111.85 64.5052 110.769 65.1134C109.688 65.7216 108.422 66.0125 107.025 66.0125H103.993C102.569 66.0125 101.33 65.7216 100.275 65.1134H100.249Z" fill="white"/>
<path d="M116.754 51.468H120.366V53.1869C120.788 52.6051 121.342 52.1291 122.001 51.7589C122.66 51.4151 123.346 51.23 124.005 51.23H125.719C127.248 51.23 128.461 51.706 129.384 52.658C130.307 53.61 130.781 54.8793 130.781 56.4396V65.7745H126.879V56.5982C126.879 56.0165 126.721 55.514 126.404 55.1702C126.088 54.8 125.692 54.6149 125.191 54.6149H123.478C122.818 54.6149 122.212 54.8529 121.685 55.3553C121.157 55.8314 120.815 56.4925 120.63 57.2594V65.7745H116.728V51.468H116.754Z" fill="white"/>
<path d="M133.892 49.4846C133.444 49.0615 133.233 48.4797 133.233 47.7657C133.233 47.0517 133.471 46.4963 133.892 46.0468C134.341 45.6237 134.947 45.4121 135.685 45.4121C136.424 45.4121 137.03 45.6237 137.478 46.0468C137.927 46.4699 138.137 47.0517 138.137 47.7657C138.137 48.4797 137.9 49.035 137.478 49.4846C137.03 49.9077 136.424 50.1193 135.685 50.1193C134.947 50.1193 134.341 49.9077 133.892 49.4846ZM133.734 51.4679H137.637V65.7745H133.734V51.4679Z" fill="white"/>
<path d="M144.914 65.3513C144.545 65.0605 144.228 64.5845 143.965 63.9233L139.034 51.4679H143.121L146.496 61.3053H146.548L149.95 51.4679H154.037L148.289 65.7745H146.285C145.731 65.7745 145.256 65.6158 144.887 65.3249L144.914 65.3513Z" fill="white"/>
<path d="M156.937 65.3514C156.014 64.9019 155.302 64.2672 154.775 63.4474C154.248 62.6276 154.01 61.7021 154.01 60.6443V56.942C154.01 55.8049 154.274 54.8265 154.775 53.9538C155.302 53.0811 156.014 52.42 156.937 51.944C157.86 51.468 158.914 51.23 160.127 51.23H162.421C164.241 51.23 165.717 51.7589 166.824 52.7902C167.932 53.8216 168.486 55.1967 168.486 56.9156V59.9567H157.913V60.6443C157.913 61.279 158.123 61.7814 158.519 62.1781C158.914 62.5483 159.468 62.7599 160.154 62.7599H162.395C163.054 62.7599 163.608 62.6012 164.003 62.3103C164.425 62.0194 164.61 61.6227 164.61 61.1467H168.433C168.433 62.0987 168.169 62.945 167.668 63.7119C167.167 64.4788 166.429 65.0341 165.506 65.4308C164.583 65.8274 163.529 66.039 162.316 66.039H160.154C158.941 66.039 157.886 65.801 156.963 65.3779L156.937 65.3514ZM164.662 57.1536V56.9156C164.662 56.1751 164.451 55.5669 164.056 55.1173C163.66 54.6678 163.133 54.4298 162.448 54.4298H160.127C159.442 54.4298 158.888 54.6678 158.466 55.1438C158.044 55.6198 157.833 56.2545 157.833 57.0478V57.1271H164.636L164.662 57.1536Z" fill="white"/>
<path d="M170.41 51.4679H174.023V53.2926C174.392 52.7372 174.893 52.2877 175.578 51.9174C176.264 51.5737 176.976 51.3885 177.714 51.3885H179.665V54.7735H177.714C176.712 54.7735 175.895 55.0908 175.262 55.699C174.629 56.3073 174.313 57.1006 174.313 58.0526V65.7744H170.41V51.4679Z" fill="white"/>
<path d="M181.537 64.6374C180.482 63.7119 179.955 62.5219 179.955 61.0145H183.778C183.778 61.5434 183.963 61.9401 184.306 62.2574C184.648 62.5747 185.123 62.7334 185.703 62.7334H188.287C189.421 62.7334 190.001 62.4161 190.001 61.7814V61.3054C190.001 61.1203 189.895 60.9352 189.711 60.7765C189.526 60.6178 189.263 60.5121 188.946 60.4592L183.989 59.5865C182.829 59.4014 181.906 58.9783 181.221 58.3436C180.535 57.7089 180.192 56.942 180.192 56.0958V55.1438C180.192 53.9273 180.693 52.9753 181.695 52.2613C182.697 51.5738 184.095 51.23 185.888 51.23H188.129C189.737 51.23 191.029 51.6531 192.005 52.4993C192.98 53.3456 193.481 54.4827 193.481 55.8842H189.658C189.658 55.4611 189.526 55.1173 189.236 54.8793C188.972 54.6413 188.603 54.5091 188.129 54.5091H185.967C184.727 54.5091 184.095 54.8 184.095 55.3818V55.8314C184.095 56.0429 184.174 56.228 184.332 56.3602C184.49 56.4925 184.727 56.5982 185.044 56.6511L190.264 57.6031C191.345 57.7883 192.216 58.2114 192.901 58.8196C193.56 59.4543 193.903 60.1418 193.903 60.9352V61.9665C193.903 63.2094 193.402 64.1879 192.374 64.9283C191.345 65.6423 190.001 66.0125 188.287 66.0125H185.703C183.963 66.0125 182.565 65.563 181.537 64.6374Z" fill="white"/>
<path d="M196.302 49.4846C195.854 49.0615 195.643 48.4797 195.643 47.7657C195.643 47.0517 195.88 46.4963 196.302 46.0468C196.751 45.6237 197.357 45.4121 198.095 45.4121C198.834 45.4121 199.44 45.6237 199.888 46.0468C200.336 46.4699 200.547 47.0517 200.547 47.7657C200.547 48.4797 200.31 49.035 199.888 49.4846C199.44 49.9077 198.834 50.1193 198.095 50.1193C197.357 50.1193 196.751 49.9077 196.302 49.4846ZM196.144 51.4679H200.046V65.7745H196.144V51.4679Z" fill="white"/>
<path d="M205.715 64.6374C204.924 63.8705 204.555 62.6805 204.555 61.0674V54.7736H202.05V51.4415H204.687V47.1046H208.457V51.4415H212.175V54.7736H208.457V60.8823C208.457 61.4112 208.563 61.8078 208.747 62.0458C208.958 62.2839 209.275 62.4161 209.697 62.4161H212.149V65.7481H209.407C207.719 65.7481 206.506 65.3779 205.715 64.611V64.6374Z" fill="white"/>
<path d="M215.735 70.3229C214.733 69.4503 214.179 68.3131 214.073 66.8851H217.897C217.923 67.3082 218.108 67.652 218.424 67.9165C218.74 68.1809 219.11 68.3131 219.558 68.3131H221.904C222.484 68.3131 222.985 68.0751 223.355 67.5727C223.724 67.0967 223.908 66.4356 223.908 65.6687V63.7911C223.46 64.3729 222.959 64.8489 222.405 65.1927C221.852 65.5365 221.272 65.6951 220.744 65.6951H218.846C217.343 65.6951 216.13 65.1927 215.207 64.1878C214.284 63.1829 213.836 61.8606 213.836 60.1946V51.4943H217.738V60.2475C217.738 60.8822 217.897 61.3846 218.213 61.7813C218.529 62.178 218.951 62.3631 219.452 62.3631H221.113C221.746 62.3631 222.326 62.0986 222.827 61.5698C223.355 61.0409 223.697 60.3533 223.908 59.4806V51.4679H227.811V65.6422C227.811 66.8322 227.573 67.8636 227.072 68.7627C226.598 69.6618 225.886 70.3494 224.989 70.8518C224.093 71.3543 223.065 71.5923 221.904 71.5923H219.558C218.002 71.5923 216.737 71.1692 215.735 70.2965V70.3229Z" fill="white"/>
<path d="M240.256 65.325C239.333 64.8489 238.621 64.1878 238.12 63.3416C237.619 62.4689 237.355 61.4905 237.355 60.3534V56.9949C237.355 55.8578 237.619 54.8793 238.12 54.0066C238.647 53.134 239.359 52.4728 240.282 51.9968C241.205 51.5208 242.259 51.2828 243.472 51.2828H246.056C247.269 51.2828 248.324 51.5208 249.247 51.9968C250.169 52.4728 250.881 53.1604 251.409 54.0066C251.936 54.8793 252.173 55.8842 252.173 56.9949V60.3534C252.173 61.4905 251.91 62.4689 251.409 63.3416C250.881 64.2143 250.169 64.8754 249.247 65.325C248.324 65.801 247.243 66.039 246.03 66.039H243.446C242.233 66.039 241.178 65.801 240.256 65.325ZM245.977 62.654C246.689 62.654 247.243 62.416 247.665 61.9136C248.086 61.4111 248.297 60.8029 248.297 60.0096V57.2329C248.297 56.4395 248.086 55.8049 247.665 55.3289C247.243 54.8529 246.689 54.5884 246.004 54.5884H243.551C242.866 54.5884 242.312 54.8264 241.89 55.3289C241.468 55.8049 241.258 56.466 241.258 57.2329V60.0096C241.258 60.8029 241.468 61.4376 241.89 61.9136C242.312 62.3896 242.866 62.654 243.525 62.654H245.977Z" fill="white"/>
<path d="M255.337 54.7999H252.885V51.4679H255.337V50.5159C255.337 48.9556 255.838 47.7656 256.814 46.893C257.789 46.0203 259.161 45.5972 260.927 45.5972H262.984V48.9292H260.98C260.373 48.9292 259.925 49.0614 259.661 49.3259C259.398 49.5903 259.24 50.0134 259.24 50.5952V51.4943H262.667V54.8264H259.24V65.8273H255.337V54.8264V54.7999Z" fill="white"/>
<path d="M96.8737 73.0996H100.829V81.4032H110.162V73.0996H114.117V93.1976H110.162V84.841H100.829V93.1976H96.8737V73.0996Z" fill="white"/>
<path d="M119.154 92.7216C118.231 92.2456 117.519 91.5844 117.018 90.7382C116.517 89.8655 116.253 88.8871 116.253 87.75V84.3915C116.253 83.2544 116.517 82.2759 117.018 81.4032C117.545 80.5306 118.257 79.8694 119.18 79.3934C120.103 78.9174 121.157 78.6794 122.37 78.6794H124.954C126.167 78.6794 127.222 78.9174 128.145 79.3934C129.067 79.8694 129.779 80.557 130.307 81.4032C130.834 82.2759 131.071 83.2808 131.071 84.3915V87.75C131.071 88.8871 130.808 89.8655 130.307 90.7382C129.779 91.6109 129.067 92.272 128.145 92.7216C127.222 93.1976 126.141 93.4356 124.928 93.4356H122.344C121.131 93.4356 120.076 93.1976 119.154 92.7216ZM124.849 90.0771C125.561 90.0771 126.114 89.8391 126.536 89.3366C126.958 88.8342 127.169 88.226 127.169 87.4326V84.6559C127.169 83.8626 126.958 83.2279 126.536 82.7519C126.114 82.2759 125.561 82.0115 124.875 82.0115H122.423C121.737 82.0115 121.184 82.2495 120.762 82.7519C120.34 83.2279 120.129 83.889 120.129 84.6559V87.4326C120.129 88.226 120.34 88.8606 120.762 89.3366C121.184 89.8126 121.737 90.0771 122.397 90.0771H124.849Z" fill="white"/>
<path d="M142.804 92.4836C141.697 91.8489 140.827 90.9498 140.22 89.8127C139.614 88.6491 139.298 87.3269 139.298 85.8195V80.5306C139.298 79.0233 139.614 77.6746 140.22 76.5375C140.853 75.3739 141.723 74.4748 142.857 73.8666C143.991 73.2319 145.309 72.9146 146.786 72.9146H149.818C151.242 72.9146 152.507 73.2319 153.588 73.8401C154.669 74.4483 155.513 75.321 156.12 76.4052C156.726 77.5159 157.016 78.7853 157.016 80.2397H153.114C153.114 79.1026 152.797 78.177 152.191 77.463C151.584 76.7755 150.767 76.4052 149.792 76.4052H146.759C145.678 76.4052 144.835 76.8019 144.175 77.5953C143.516 78.3886 143.2 79.4199 143.2 80.7157V85.6609C143.2 86.9302 143.516 87.988 144.149 88.7814C144.782 89.5747 145.599 89.9714 146.628 89.9714H149.712C150.714 89.9714 151.558 89.5747 152.191 88.8078C152.824 88.0145 153.14 86.9831 153.14 85.7138H157.042C157.042 87.274 156.726 88.6227 156.12 89.8127C155.513 91.0027 154.643 91.9018 153.536 92.5365C152.428 93.1712 151.163 93.4885 149.712 93.4885H146.628C145.151 93.4885 143.859 93.1712 142.752 92.5365L142.804 92.4836Z" fill="white"/>
<path d="M158.73 73.0996H162.632V80.2925C163.054 79.7901 163.581 79.3934 164.188 79.0761C164.794 78.7587 165.401 78.6265 165.981 78.6265H167.747C169.277 78.6265 170.489 79.1025 171.412 80.0545C172.335 81.0065 172.81 82.2759 172.81 83.8361V93.1711H168.907V83.9948C168.907 83.413 168.749 82.9105 168.433 82.5668C168.116 82.1965 167.721 82.0114 167.22 82.0114H165.453C164.794 82.0114 164.188 82.2494 163.66 82.7519C163.133 83.2279 162.79 83.889 162.606 84.6559V93.1711H158.703V73.0731L158.73 73.0996Z" fill="white"/>
<path d="M175.921 76.8812C175.473 76.4581 175.262 75.8763 175.262 75.1623C175.262 74.4483 175.499 73.8929 175.921 73.4434C176.369 73.0203 176.976 72.8087 177.714 72.8087C178.452 72.8087 179.059 73.0203 179.507 73.4434C179.955 73.8665 180.166 74.4483 180.166 75.1623C180.166 75.8763 179.929 76.4316 179.507 76.8812C179.059 77.3043 178.452 77.5159 177.714 77.5159C176.976 77.5159 176.369 77.3043 175.921 76.8812ZM175.763 78.891H179.665V93.1976H175.763V78.891Z" fill="white"/>
<path d="M188.893 73.0996H192.4L198.939 85.0262L205.346 73.0996H208.853V93.1976H204.977V80.4777L200.758 88.1202C200.468 88.6491 200.178 88.9929 199.888 89.2309C199.598 89.4424 199.255 89.5482 198.86 89.5482H197.779L192.69 80.4777V93.1976H188.841V73.0996H188.893Z" fill="white"/>
<path d="M212.281 76.8812C211.832 76.4581 211.621 75.8763 211.621 75.1623C211.621 74.4483 211.859 73.8929 212.281 73.4434C212.729 73.0203 213.335 72.8087 214.074 72.8087C214.812 72.8087 215.418 73.0203 215.866 73.4434C216.315 73.8665 216.526 74.4483 216.526 75.1623C216.526 75.8763 216.288 76.4316 215.866 76.8812C215.418 77.3043 214.812 77.5159 214.074 77.5159C213.335 77.5159 212.729 77.3043 212.281 76.8812ZM212.122 78.891H216.025V93.1976H212.122V78.891Z" fill="white"/>
<path d="M219.136 78.891H222.748V80.6099C223.17 80.0281 223.724 79.5521 224.383 79.1818C225.042 78.8381 225.728 78.653 226.387 78.653H228.101C229.63 78.653 230.843 79.129 231.766 80.081C232.688 81.033 233.163 82.3023 233.163 83.8626V93.1975H229.261V84.0212C229.261 83.4394 229.102 82.937 228.786 82.5932C228.47 82.223 228.074 82.0379 227.573 82.0379H225.859C225.2 82.0379 224.594 82.2759 224.066 82.7783C223.539 83.2543 223.196 83.9154 223.012 84.6823V93.1975H219.109V78.891H219.136Z" fill="white"/>
<path d="M235.589 73.0996H239.491V80.2925C239.913 79.7901 240.44 79.3934 241.047 79.0761C241.653 78.7587 242.26 78.6265 242.84 78.6265H244.606C246.135 78.6265 247.348 79.1025 248.271 80.0545C249.194 81.0065 249.669 82.2759 249.669 83.8361V93.1711H245.766V83.9948C245.766 83.413 245.608 82.9105 245.292 82.5668C244.975 82.1965 244.58 82.0114 244.079 82.0114H242.312C241.653 82.0114 241.047 82.2494 240.519 82.7519C239.992 83.2279 239.649 83.889 239.465 84.6559V93.1711H235.562V73.0731L235.589 73.0996Z" fill="white"/>
<path d="M261.797 92.4836C260.69 91.8489 259.82 90.9498 259.213 89.8127C258.607 88.6491 258.29 87.3269 258.29 85.8195V80.5306C258.29 79.0233 258.607 77.6746 259.213 76.5375C259.846 75.3739 260.716 74.4748 261.85 73.8666C262.984 73.2319 264.302 72.9146 265.779 72.9146H268.811C270.235 72.9146 271.5 73.2319 272.581 73.8401C273.662 74.4483 274.506 75.321 275.112 76.4052C275.719 77.5159 276.009 78.7853 276.009 80.2397H272.107C272.107 79.1026 271.79 78.177 271.184 77.463C270.577 76.7755 269.76 76.4052 268.784 76.4052H265.752C264.671 76.4052 263.827 76.8019 263.168 77.5953C262.509 78.3886 262.193 79.4199 262.193 80.7157V85.6609C262.193 86.9302 262.509 87.988 263.142 88.7814C263.775 89.5747 264.592 89.9714 265.62 89.9714H268.705C269.707 89.9714 270.551 89.5747 271.184 88.8078C271.817 88.0145 272.133 86.9831 272.133 85.7138H276.035C276.035 87.274 275.719 88.6227 275.112 89.8127C274.506 91.0027 273.636 91.9018 272.528 92.5365C271.421 93.1712 270.155 93.4885 268.705 93.4885H265.62C264.144 93.4885 262.852 93.1712 261.744 92.5365L261.797 92.4836Z" fill="white"/>
<path d="M278.408 76.8812C277.96 76.4581 277.749 75.8763 277.749 75.1623C277.749 74.4483 277.986 73.8929 278.408 73.4434C278.856 73.0203 279.463 72.8087 280.201 72.8087C280.939 72.8087 281.546 73.0203 281.994 73.4434C282.442 73.8665 282.653 74.4483 282.653 75.1623C282.653 75.8763 282.416 76.4316 281.994 76.8812C281.546 77.3043 280.939 77.5159 280.201 77.5159C279.463 77.5159 278.856 77.3043 278.408 76.8812ZM278.25 78.891H282.152V93.1976H278.25V78.891Z" fill="white"/>
<path d="M287.795 92.0604C287.004 91.2935 286.635 90.1035 286.635 88.4904V82.1965H284.13V78.8645H286.766V74.5276H290.537V78.8645H294.255V82.1965H290.537V88.3053C290.537 88.8341 290.642 89.2308 290.827 89.4688C291.038 89.7068 291.354 89.839 291.776 89.839H294.228V93.1711H291.486C289.799 93.1711 288.586 92.8008 287.795 92.034V92.0604Z" fill="white"/>
<path d="M297.84 97.7195C296.838 96.8469 296.285 95.7098 296.179 94.2817H300.002C300.029 94.7049 300.213 95.0486 300.53 95.3131C300.846 95.5775 301.215 95.7097 301.664 95.7097H304.01C304.59 95.7097 305.091 95.4717 305.46 94.9693C305.83 94.4933 306.014 93.8322 306.014 93.0653V91.1877C305.566 91.7695 305.065 92.2455 304.511 92.5893C303.957 92.9331 303.377 93.0917 302.85 93.0917H300.952C299.449 93.0917 298.236 92.5893 297.313 91.5844C296.39 90.5795 295.942 89.2573 295.942 87.5912V78.8909H299.844V87.6441C299.844 88.2788 300.002 88.7812 300.319 89.1779C300.635 89.5746 301.057 89.7597 301.558 89.7597H303.219C303.852 89.7597 304.432 89.4953 304.933 88.9664C305.46 88.4375 305.803 87.7499 306.014 86.8772V78.8645H309.916V93.0388C309.916 94.2289 309.679 95.2602 309.178 96.1593C308.703 97.0584 307.992 97.746 307.095 98.2484C306.199 98.7509 305.17 98.9889 304.01 98.9889H301.664C300.108 98.9889 298.842 98.5658 297.84 97.6931V97.7195Z" fill="white"/>
</g>
<defs>
<clipPath id="clip0_3744_6014">
<rect width="300" height="81" fill="white" transform="translate(9.89001 18.0154)"/>
</clipPath>
</defs>
</svg>
